<svg width="338" height="310" viewBox="0 0 338 310" fill="none" xmlns="http://www.w3.org/2000/svg">
<path d="M39.5405 291.112C40.1835 288.57 38.5058 286.028 36.6285 284.195C34.7512 282.362 32.5044 280.728 31.5214 278.282C29.925 274.343 32.0092 269.213 29.3042 265.939C27.7152 264.01 24.8697 263.375 23.4654 261.313C22.8121 260.171 22.376 258.918 22.1794 257.617C20.6486 251.071 17.3863 245.057 12.734 240.204C12.4576 246.05 13.7569 251.862 16.4959 257.033C17.5971 259.103 18.9422 261.113 19.3192 263.419C19.9252 267.174 17.841 271.046 18.7944 274.727C19.8735 278.94 24.6258 281.733 24.8771 286.072C25.084 289.767 21.9208 292.975 22.1647 296.641C22.3609 298.208 22.9285 299.705 23.8202 301.009C26.6878 305.709 30.871 308.932 37.1828 308.791L44.921 309.02L39.5405 291.112Z" fill="#F5F5F5"/>
<path d="M46.4883 309.183C47.1957 309.289 47.9163 309.269 48.6168 309.124C49.4735 308.992 50.3152 308.777 51.1297 308.481C52.25 308.082 53.2964 307.5 54.2265 306.759C54.7798 306.301 55.2135 305.715 55.4903 305.052C55.7204 304.302 55.8375 303.522 55.8377 302.738C55.8479 301.901 55.9047 301.064 56.0076 300.233C56.1543 299.35 56.4705 298.504 56.9389 297.742C57.8406 296.131 59.3483 294.608 59.8213 292.428C60.2943 290.248 59.947 287.994 59.5774 285.651C59.2079 283.308 58.8383 280.81 59.7178 278.385C60.5974 275.961 62.2159 273.766 63.0437 271.032C63.8715 268.297 63.465 265.318 63.6276 262.392C63.674 260.908 64.0078 259.447 64.6106 258.09C65.2314 256.716 66.0887 255.422 66.7613 253.981C68.1138 251.025 68.3355 247.75 68.6977 244.513C68.8702 242.882 69.0451 241.234 69.2225 239.569C69.3293 237.894 69.6092 236.234 70.0576 234.617C70.5678 232.983 71.1749 231.382 71.8758 229.82C72.2407 229.011 72.5373 228.173 72.7627 227.315C72.8881 226.433 72.9671 225.545 72.9992 224.654C73.0717 222.864 72.9926 221.072 72.7627 219.296C72.5409 217.515 72.2083 215.748 72.0236 213.96C72.0236 213.849 72.0236 213.745 72.0236 213.649L71.9792 213.294L71.6614 213.457C70.0263 214.3 68.6075 215.509 67.5152 216.99C66.4556 218.441 65.6048 220.033 64.9875 221.72C63.7163 225.053 63.2654 228.534 62.6372 231.868C62.009 235.201 61.1591 238.468 59.5109 241.239C58.6683 242.621 57.6558 243.885 56.7615 245.23C55.8093 246.549 55.163 248.064 54.8695 249.665C54.426 252.939 56.2515 255.806 55.8894 258.704C55.7177 260.127 55.244 261.498 54.4999 262.724C53.8052 263.966 53.0217 265.119 52.2088 266.272C51.4156 267.401 50.7278 268.601 50.1541 269.856C49.6158 271.084 49.3005 272.398 49.2229 273.737C49.0529 276.346 49.4372 278.822 49.2598 281.127C49.0564 283.353 48.4186 285.518 47.3825 287.498C46.4587 289.405 45.4314 291.127 44.5666 292.805C44.1375 293.607 43.7502 294.431 43.4063 295.273C43.1018 296.067 42.8789 296.889 42.7411 297.727C42.5288 299.198 42.5288 300.691 42.7411 302.162C42.9492 304.202 43.7164 306.146 44.9584 307.779C45.1453 308.023 45.3557 308.248 45.5866 308.451C45.7399 308.613 45.9109 308.757 46.0965 308.88C46.3848 309.094 46.54 309.19 46.54 309.19C45.9976 308.75 45.5023 308.255 45.0618 307.712C43.8618 306.078 43.1263 304.15 42.9333 302.132C42.749 300.685 42.7739 299.219 43.0072 297.779C43.1426 296.958 43.3681 296.155 43.6797 295.384C44.0238 294.552 44.4111 293.738 44.8401 292.945C45.7122 291.29 46.7543 289.568 47.7003 287.646C48.7673 285.635 49.4254 283.432 49.6367 281.164C49.8289 278.777 49.452 276.301 49.6367 273.774C49.6841 272.466 49.9645 271.177 50.4645 269.967C51.0365 268.739 51.7167 267.564 52.497 266.457C53.273 265.311 54.1008 264.158 54.8177 262.887C55.6037 261.614 56.1078 260.188 56.2959 258.704C56.6506 255.614 54.8177 252.732 55.2907 249.687C55.5791 248.159 56.2053 246.714 57.1237 245.459C57.9958 244.136 59.0231 242.872 59.8878 241.453C61.6247 238.601 62.4598 235.267 63.0807 231.927C63.7015 228.586 64.1671 225.127 65.4162 221.868C66.0179 220.224 66.8489 218.674 67.8847 217.263C68.9259 215.839 70.2849 214.678 71.8536 213.871L71.4988 213.671C71.4988 213.775 71.4988 213.878 71.4988 213.989C71.6984 215.792 72.031 217.566 72.2379 219.325C72.4675 221.074 72.5466 222.84 72.4744 224.602C72.4301 225.46 72.3783 226.369 72.2527 227.182C72.0321 228.009 71.7454 228.817 71.3954 229.599C70.6886 231.178 70.0742 232.797 69.555 234.447C69.103 236.091 68.8206 237.778 68.7125 239.48C68.5425 241.15 68.3651 242.799 68.1951 244.432C67.8404 247.684 67.6186 250.936 66.3105 253.759C65.6675 255.163 64.8323 256.464 64.1745 257.876C63.5548 259.275 63.211 260.781 63.162 262.31C63.0068 265.267 63.4133 268.223 62.6224 270.862C61.8316 273.5 60.1613 275.703 59.3187 278.201C58.4762 280.699 58.8162 283.337 59.2005 285.651C59.5848 287.964 59.9765 290.24 59.4887 292.302C59.0009 294.364 57.5893 295.894 56.6654 297.542C56.1852 298.357 55.8735 299.259 55.749 300.196C55.648 301.037 55.5961 301.884 55.5938 302.731C55.5976 303.481 55.493 304.228 55.2833 304.948C55.0262 305.584 54.6147 306.145 54.086 306.581C53.1818 307.318 52.1632 307.903 51.0706 308.311C50.2682 308.616 49.4393 308.846 48.5946 308.998C48.0751 309.093 47.5485 309.145 47.0204 309.153L46.4883 309.183Z" fill="#EDEDED"/>
<path d="M70.4128 217.921C70.3745 217.992 70.3494 218.07 70.3389 218.15C70.2946 218.335 70.2428 218.564 70.1689 218.852C70.0211 219.458 69.8437 220.382 69.5629 221.528C69.282 222.673 68.5725 223.982 67.9812 225.578C67.39 227.174 66.7396 229.007 66.1705 231.077C65.6014 233.146 65.084 235.437 64.5519 237.891C64.0929 240.514 63.2746 243.06 62.1203 245.459C61.4921 246.723 60.7826 248.002 60.2283 249.391C59.6801 250.818 59.3126 252.308 59.1344 253.826C58.7631 256.973 58.2253 260.099 57.5232 263.19L53.2513 281.09C51.9062 286.574 50.6867 291.519 49.6668 295.687C48.6468 299.856 47.8634 303.226 47.2943 305.554C47.0282 306.692 46.8213 307.587 46.6735 308.237C46.6143 308.525 46.5626 308.754 46.5257 308.976C46.5177 309.057 46.5177 309.139 46.5257 309.22C46.5632 309.148 46.5906 309.071 46.607 308.991L46.8065 308.296C46.9765 307.653 47.2204 306.766 47.5456 305.635C48.1516 303.278 49.0238 299.937 50.0733 295.82C51.1228 291.704 52.3792 286.73 53.7687 281.253C55.1582 275.776 56.4885 269.664 58.011 263.316C58.7132 260.212 59.251 257.074 59.6222 253.914C59.7847 252.43 60.1348 250.972 60.6643 249.576C61.2039 248.216 61.8986 246.945 62.5268 245.674C63.6916 243.238 64.5077 240.65 64.951 237.987C65.4684 235.526 65.9562 233.235 66.5105 231.18C67.0648 229.126 67.6487 227.278 68.2399 225.689C68.8312 224.1 69.4742 222.777 69.7181 221.587C69.962 220.397 70.1246 219.495 70.2428 218.874C70.2872 218.594 70.3241 218.357 70.3611 218.172C70.3888 218.091 70.4062 218.007 70.4128 217.921Z" fill="#EDEDED"/>
<path d="M47.855 309.198C52.8882 306.168 54.285 297.04 52.1491 291.571C50.0131 286.102 46.2955 281.098 45.6895 275.252C45.2239 270.758 46.6725 266.139 45.6008 261.749C44.1226 255.836 38.3356 251.261 38.3726 245.164C38.3726 241.742 40.3164 238.512 40.139 235.097C39.9246 230.907 36.6875 227.596 34.6772 223.915C31.5952 218.283 31.3587 211.58 30.2796 205.268C29.2005 198.956 26.7468 192.157 21.1076 189.075C20.3094 194.463 18.8903 198.158 19.4003 205.445C19.5777 208.062 22.6449 213.058 23.0957 218.793C23.3618 222.215 23.554 225.652 23.7831 229.081C24.0122 232.511 24.2339 235.822 25.446 238.926C26.3772 241.313 27.8628 243.479 28.5575 245.947C29.8657 250.589 28.2102 255.636 29.2966 260.344C30.1983 264.328 32.992 267.735 33.5685 271.793C34.3963 277.476 30.7452 283.404 32.6595 288.792C33.6129 291.475 35.8375 293.625 36.4805 296.397C36.9831 298.555 36.4805 300.831 36.9166 303.004C37.6557 306.493 44.3074 309.161 47.8772 308.917" fill="#EDEDED"/>
<path d="M22.5345 194.411C22.5246 194.512 22.5246 194.613 22.5345 194.714C22.5345 194.943 22.601 195.231 22.6527 195.601C22.771 196.377 22.9114 197.515 23.1775 198.986C23.4435 200.456 24.2418 202.134 24.87 204.159C25.4982 206.184 26.1782 208.483 26.762 211.07C27.3459 213.656 27.8485 216.524 28.3732 219.613C28.898 222.703 29.4671 226.058 31.0192 229.266C31.7582 230.877 32.5417 232.488 33.1477 234.203C33.7465 235.97 34.1214 237.805 34.2637 239.665C34.5636 243.602 35.0743 247.519 35.7936 251.401C37.3827 259.369 38.9052 266.922 40.2799 273.862C41.6546 280.802 43.0662 286.966 44.1674 292.14C45.2687 297.313 46.1851 301.519 46.8134 304.46L47.5525 307.808C47.6411 308.163 47.7077 308.451 47.7594 308.673C47.7784 308.772 47.8081 308.869 47.8481 308.961C47.8563 308.86 47.8563 308.759 47.8481 308.658C47.8037 308.437 47.752 308.148 47.6855 307.786C47.5303 306.981 47.3159 305.857 47.0351 304.423C46.4438 301.467 45.5569 297.262 44.5444 292.066C43.5318 286.87 42.1941 280.647 40.7824 273.759C39.3708 266.87 37.9148 259.273 36.3479 251.313C35.6245 247.436 35.1065 243.523 34.7959 239.591C34.6531 237.695 34.2707 235.825 33.6577 234.026C33.0369 232.267 32.2239 230.648 31.4996 229.052C29.9623 225.896 29.408 222.592 28.8462 219.517C28.2845 216.443 27.782 213.56 27.1685 210.966C26.6272 208.631 25.9686 206.325 25.1952 204.056C24.5448 202.038 23.717 200.36 23.4362 198.941C23.1553 197.522 22.9705 196.34 22.8153 195.571C22.7488 195.209 22.6897 194.921 22.6527 194.699C22.6215 194.6 22.5819 194.503 22.5345 194.411Z" fill="#EBEBEB"/>
<path d="M138.017 2.58909C142.333 -2.44407 153.537 0.719208 161.239 4.80634C161.239 4.80634 166.53 7.30444 168.496 8.59784H168.563L186.537 6.38059C187.998 6.19279 189.482 6.45039 190.794 7.11967L192.273 7.85875C192.439 7.94463 192.578 8.076 192.673 8.23761C192.768 8.39923 192.815 8.58444 192.809 8.77174C192.802 8.95904 192.743 9.14074 192.638 9.29573C192.533 9.45072 192.385 9.57264 192.214 9.64733L178.977 15.3013V15.4639L192.044 24.0521L192.243 24.1777C194.707 25.7578 197.677 26.3491 200.558 25.8333L207.557 24.5768C207.911 24.5094 208.276 24.54 208.614 24.6655C208.897 24.7807 209.145 24.967 209.335 25.2065C209.525 25.446 209.65 25.7304 209.697 26.0323C209.745 26.3342 209.714 26.6432 209.607 26.9295C209.5 27.2157 209.321 27.4695 209.087 27.6662L200.957 34.4362C200.336 34.9574 199.579 35.2911 198.776 35.3984C197.972 35.5058 197.155 35.3822 196.419 35.0422L192.62 33.298L173.404 24.1555L175.621 35.0866C175.636 35.1919 175.628 35.2993 175.598 35.4013C175.567 35.5033 175.515 35.5975 175.445 35.6775C175.375 35.7575 175.288 35.8214 175.191 35.8648C175.094 35.9082 174.988 35.9302 174.882 35.9291H173.98C173.375 35.9034 172.786 35.7244 172.269 35.409C171.752 35.0936 171.324 34.6521 171.024 34.1258L163.286 19.3441L140.611 8.56088C137.588 7.17141 136.509 4.57722 138.017 2.58909Z" fill="#EDEDED"/>
<path d="M12.1433 50.9843L69.134 49.7204C69.134 49.7204 63.8791 40.6371 49.2453 42.3296C35.2618 43.9186 34.4193 38.1464 27.2723 37.5995C20.1254 37.0526 14.3162 42.6179 12.1433 50.9843Z" fill="#F5F5F5"/>
<path d="M278.642 81.8114H332.337C332.337 81.8114 327.592 73.1641 313.771 74.4206C300.563 75.6179 299.898 70.1635 293.18 69.4983C286.462 68.8331 280.874 73.9771 278.642 81.8114Z" fill="#F5F5F5"/>
<path d="M44.5961 22.6994H85.5561C85.5561 22.6994 81.9346 16.1068 71.3878 17.0676C61.3215 17.984 60.8116 13.823 55.6897 13.3056C50.5679 12.7883 46.3034 16.7202 44.5961 22.6994Z" fill="#F5F5F5"/>
<path d="M278.694 108.906H305.485C305.485 108.906 303.12 104.59 296.225 105.211C289.632 105.809 289.299 103.09 285.951 102.757C282.603 102.424 279.81 104.997 278.694 108.906Z" fill="#F5F5F5"/>
<path d="M265.294 34.7319H292.093C292.093 34.7319 289.72 30.4156 282.825 31.0365C276.232 31.6351 275.9 28.9153 272.552 28.5827C269.203 28.2501 266.388 30.8221 265.294 34.7319Z" fill="#FAFAFA"/>
<path d="M333.223 309.242C333.223 309.346 258.627 309.434 166.619 309.434C74.6105 309.434 0 309.346 0 309.242C0 309.139 74.5809 309.05 166.619 309.05C258.657 309.05 333.223 309.139 333.223 309.242Z" fill="#263238"/>
<path d="M282.167 178.912C282.114 178.395 281.87 177.917 281.484 177.57C281.097 177.223 280.595 177.032 280.076 177.035H264.296C263.989 177.036 263.685 177.104 263.407 177.236C263.129 177.368 262.883 177.56 262.688 177.799C262.493 178.037 262.353 178.315 262.279 178.614C262.204 178.912 262.196 179.224 262.256 179.526C262.349 180.008 262.611 180.442 262.994 180.749C263.377 181.056 263.857 181.217 264.348 181.203H280.083C280.374 181.203 280.662 181.141 280.929 181.023C281.195 180.905 281.434 180.732 281.63 180.517C281.826 180.301 281.975 180.047 282.067 179.771C282.16 179.495 282.194 179.202 282.167 178.912Z" fill="#263238"/>
<path d="M316.586 304.069C316.441 305.054 316.592 306.06 317.019 306.959C317.447 307.858 318.131 308.611 318.986 309.121C319.841 309.632 320.828 309.877 321.822 309.826C322.817 309.775 323.774 309.431 324.572 308.836C325.371 308.241 325.975 307.423 326.308 306.485C326.642 305.547 326.689 304.531 326.445 303.565C326.201 302.6 325.676 301.729 324.937 301.062C324.197 300.395 323.277 299.963 322.292 299.819C320.972 299.627 319.629 299.966 318.559 300.763C317.489 301.56 316.78 302.749 316.586 304.069Z" fill="#263238"/>
<path d="M320.518 304.83L317.451 298.488L319.062 297.461L322.033 304.083L320.518 304.83Z" fill="#455A64"/>
<path d="M292.093 226.761L273.032 177.028L269.411 178.846L287.88 228.128L292.093 226.761Z" fill="#263238"/>
<path d="M336.104 292.451L307.943 303.641C307.441 303.841 306.879 303.833 306.382 303.618C305.886 303.404 305.494 303.001 305.294 302.498L277.285 232.007C276.227 229.344 276.27 226.369 277.405 223.738C278.54 221.106 280.674 219.034 283.337 217.975L295.206 213.259C297.869 212.201 300.843 212.244 303.475 213.379C306.106 214.514 308.179 216.648 309.237 219.311L337.247 289.802C337.446 290.305 337.438 290.867 337.224 291.364C337.01 291.86 336.607 292.252 336.104 292.451Z" fill="#1CA0E3"/>
<path d="M305.263 302.82C305.263 302.82 305.219 302.672 305.115 302.391L304.65 301.142L302.817 296.345L295.995 278.748C293.09 271.32 289.646 262.488 285.818 252.665L279.794 237.27C279.277 235.94 278.745 234.595 278.22 233.235C277.664 231.905 277.46 230.454 277.629 229.022C277.811 227.563 278.383 226.18 279.285 225.019C280.187 223.857 281.385 222.961 282.754 222.424C284.123 221.887 285.611 221.728 287.062 221.966C288.513 222.204 289.873 222.829 290.999 223.775C292.091 224.713 292.928 225.913 293.43 227.263L295.012 231.306C297.111 236.642 299.136 241.786 301.058 246.694L311.324 272.739C314.28 280.13 316.623 286.124 318.278 290.285L320.185 295.052C320.407 295.577 320.57 295.99 320.695 296.286C320.821 296.582 320.88 296.7 320.88 296.7C320.88 296.7 320.836 296.552 320.732 296.264L320.267 295.015C319.845 293.906 319.224 292.295 318.434 290.226L311.612 272.628L301.435 246.546C299.52 241.638 297.503 236.487 295.411 231.151C294.894 229.813 294.362 228.468 293.83 227.108C293.313 225.677 292.434 224.404 291.28 223.412C290.094 222.415 288.661 221.756 287.132 221.505C285.603 221.254 284.034 221.421 282.592 221.987C281.15 222.553 279.887 223.498 278.936 224.722C277.986 225.945 277.384 227.403 277.193 228.941C277.014 230.448 277.228 231.975 277.814 233.375L279.395 237.448C281.494 242.776 283.519 247.928 285.441 252.828C289.299 262.613 292.78 271.445 295.699 278.836L302.654 296.39L304.568 301.149C304.783 301.681 304.953 302.088 305.078 302.383C305.131 302.532 305.193 302.678 305.263 302.82Z" fill="#263238"/>
<path d="M303.445 252.724C303.504 252.917 307.185 251.461 311.671 249.487C316.158 247.514 319.742 245.748 319.683 245.563C319.624 245.378 315.936 246.819 311.457 248.8C306.978 250.781 303.386 252.532 303.445 252.724Z" fill="#263238"/>
<path d="M278.538 177.028L275.249 170.524C274.881 169.797 274.265 169.226 273.512 168.912L268.339 166.754L254.4 147.849L253.084 162.327L261.953 171.484C261.953 171.484 267.518 183.206 272.064 182.608C271.951 181.551 271.64 180.526 271.147 179.585C269.669 177.028 271.243 177.028 271.45 177.042H275.257L278.538 177.028Z" fill="#FFBE9D"/>
<path d="M255.782 167.028C256.203 167.656 259.647 172.327 259.647 172.327L269.41 165.224L265.863 161.758L255.782 167.028Z" fill="#1CA0E3"/>
<path d="M271.177 179.585C271.177 179.585 273.719 181.063 274.037 182.26V182.999L270.992 182.556L271.177 179.585Z" fill="#FFBE9D"/>
<path d="M274.584 180.974C274.133 180.622 273.782 180.158 273.564 179.629C273.466 179.362 273.471 179.068 273.577 178.805C273.684 178.541 273.885 178.326 274.141 178.203C274.665 178.025 275.205 178.402 275.619 178.779C276.138 179.244 276.632 179.738 277.097 180.257C277.317 180.446 277.49 180.685 277.6 180.953C277.711 181.222 277.756 181.513 277.733 181.802C277.664 182.027 277.528 182.225 277.343 182.369C277.158 182.513 276.932 182.596 276.698 182.608C276.462 182.613 276.227 182.569 276.009 182.48C275.79 182.391 275.592 182.259 275.427 182.09C275.097 181.758 274.834 181.367 274.651 180.937" fill="#FFBE9D"/>
<path d="M277.164 180.752C276.713 180.4 276.361 179.936 276.144 179.407C276.046 179.14 276.05 178.847 276.157 178.583C276.263 178.319 276.464 178.105 276.72 177.981C277.245 177.804 277.784 178.18 278.198 178.557C278.718 179.023 279.211 179.516 279.676 180.036C279.897 180.225 280.069 180.463 280.18 180.732C280.29 181 280.335 181.291 280.312 181.58C280.244 181.805 280.108 182.003 279.922 182.147C279.737 182.291 279.512 182.375 279.277 182.386C279.041 182.39 278.807 182.347 278.589 182.258C278.37 182.169 278.172 182.037 278.006 181.868C277.677 181.537 277.414 181.145 277.23 180.715" fill="#FFBE9D"/>
<path d="M269.411 169.651C269.411 169.563 270.068 169.592 270.83 170.25C271.184 170.683 271.479 171.16 271.709 171.669C272.053 172.288 272.227 172.987 272.212 173.694C272.106 174.39 271.832 175.05 271.414 175.616C271.131 176.071 270.926 176.571 270.808 177.094C270.7 177.579 270.665 178.077 270.704 178.572C270.576 178.341 270.495 178.087 270.468 177.824C270.44 177.561 270.465 177.295 270.541 177.042C270.63 176.482 270.823 175.943 271.111 175.453C271.486 174.925 271.739 174.318 271.85 173.679C271.858 173.037 271.708 172.403 271.414 171.832C271.219 171.341 270.971 170.872 270.674 170.435C270.42 170.183 270.132 169.969 269.817 169.799C269.685 169.742 269.549 169.693 269.411 169.651Z" fill="#EB996E"/>
<path d="M164.231 102.942L153.869 136.067L184.349 167.9L212.279 160.642L164.231 102.942Z" fill="#F5F5F5"/>
<path d="M164.224 102.934L164.461 103.208L165.163 104.036L167.883 107.273L178.016 119.357L212.435 160.524L212.627 160.753L212.339 160.827L196.596 164.921L184.409 168.085H184.298L184.224 168.003L153.759 136.193L153.7 136.127V136.045C156.907 125.898 159.539 117.613 161.364 111.848C162.266 108.995 162.975 106.77 163.463 105.248L164.01 103.533C164.136 103.156 164.195 102.964 164.195 102.964C163.84 104.124 160.196 115.972 153.988 136.134L153.951 135.986L184.453 167.767L184.268 167.715L196.456 164.544L212.198 160.45L212.102 160.76L177.993 119.608L167.898 107.413L165.178 104.11L164.439 103.252L164.224 102.934Z" fill="#263238"/>
<path d="M165.177 124.789C165.564 124.188 166.069 123.67 166.661 123.268C167.252 122.867 167.919 122.588 168.621 122.45C169.323 122.312 170.045 122.317 170.745 122.465C171.445 122.613 172.108 122.901 172.694 123.311C174.601 124.789 175.48 127.575 177.771 128.315C179.427 128.847 181.252 128.071 182.945 128.374C184.948 128.736 186.441 130.591 187.017 132.513C187.594 134.434 187.439 136.555 187.276 138.588L177.365 138.721L165.177 124.789Z" fill="#EDEDED"/>
<path d="M146.848 105.965L211.075 172.15L184.904 169.496L148.297 130.85L146.848 105.965Z" fill="#F5F5F5"/>
<path d="M146.855 105.965C146.915 106.933 147.447 115.447 148.422 130.842V130.761C157.787 140.62 170.595 154.094 185.073 169.371L184.955 169.311L205.036 171.337L211.126 171.957L210.971 172.283C175.258 135.328 148.304 107.435 146.892 105.965L211.244 172.017L211.614 172.393L211.089 172.342L204.992 171.721L184.918 169.681H184.852L184.8 169.637C170.344 154.33 157.572 140.812 148.238 130.946V130.901C147.351 115.454 146.9 106.933 146.855 105.965Z" fill="#263238"/>
<path d="M171.984 132.269C170.004 134.552 170.292 138.181 171.984 140.702C173.677 143.222 176.471 144.744 179.294 145.831C181.578 146.71 184.394 147.265 186.286 145.713" fill="#EDEDED"/>
<path d="M168.644 128.669C168.762 129.224 168.068 129.638 167.506 129.586C166.944 129.534 166.427 129.216 165.858 129.187C164.313 129.098 163.471 130.931 162.214 131.825C161.456 132.32 160.536 132.501 159.647 132.328C158.758 132.156 157.972 131.644 157.454 130.901C156.612 129.593 156.634 127.657 155.304 126.851C154.52 126.468 153.623 126.387 152.783 126.622C151.952 126.853 151.087 126.943 150.226 126.888C149.797 126.849 149.394 126.662 149.086 126.361C148.778 126.059 148.583 125.661 148.534 125.233L148.068 124.494L146.974 106.223L168.644 128.669Z" fill="#EDEDED"/>
<path d="M199.944 170.812C200.274 170.895 200.617 170.911 200.953 170.857C201.288 170.803 201.609 170.68 201.896 170.498C202.183 170.315 202.429 170.075 202.619 169.794C202.81 169.512 202.941 169.195 203.004 168.861C203.086 168.127 202.885 167.39 202.441 166.801C201.997 166.211 201.344 165.814 200.617 165.69C199.309 165.52 197.956 166.281 196.7 165.889C195.266 165.439 194.675 163.776 194.312 162.32C193.95 160.864 193.44 159.201 192.051 158.624C189.752 157.693 187.328 160.642 184.926 159.992C183.145 159.511 182.458 157.368 181.061 156.163C180.495 155.684 179.817 155.358 179.09 155.216C178.363 155.073 177.611 155.12 176.907 155.35C176.268 155.506 175.687 155.845 175.237 156.326C174.787 156.806 174.487 157.407 174.372 158.055L184.978 169.238L199.944 170.812Z" fill="#EDEDED"/>
<path d="M182.384 282.665L179.745 297.875C179.745 297.875 163.397 300.299 162.635 303.049L191.947 309.227L197.032 285.695L182.384 282.665Z" fill="#1CA0E3"/>
<g opacity="0.6">
<path d="M189.08 298.518C189.343 298.663 189.544 298.9 189.644 299.183C189.744 299.467 189.735 299.778 189.619 300.055C189.484 300.324 189.25 300.531 188.967 300.632C188.684 300.734 188.372 300.723 188.097 300.602C187.817 300.448 187.605 300.196 187.501 299.894C187.397 299.592 187.409 299.262 187.535 298.969C187.706 298.703 187.973 298.513 188.28 298.44C188.588 298.367 188.911 298.416 189.183 298.577" fill="white"/>
</g>
<path opacity="0.6" d="M191.947 309.242L192.479 306.921L164.128 301.851C164.128 301.851 162.709 302.147 162.65 303.093L191.947 309.242Z" fill="white"/>
<path d="M179.302 297.624C179.302 297.772 179.982 297.986 180.588 298.592C181.194 299.198 181.445 299.885 181.585 299.856C181.726 299.826 181.689 298.954 180.942 298.23C180.196 297.506 179.302 297.491 179.302 297.624Z" fill="#263238"/>
<path d="M175.961 298.252C175.902 298.385 176.471 298.755 176.826 299.464C177.18 300.174 177.188 300.839 177.336 300.868C177.483 300.898 177.742 300.129 177.276 299.228C176.811 298.326 175.99 298.111 175.961 298.252Z" fill="#263238"/>
<path d="M173.441 301.563C173.566 301.622 173.914 300.95 173.714 300.085C173.515 299.22 172.909 298.769 172.82 298.88C172.731 298.991 173.057 299.494 173.219 300.203C173.382 300.913 173.3 301.519 173.441 301.563Z" fill="#263238"/>
<path d="M180.292 294.224C180.292 294.372 181.031 294.313 181.822 294.534C182.613 294.756 183.189 295.148 183.3 295.044C183.411 294.941 182.901 294.305 181.962 294.047C181.024 293.788 180.24 294.098 180.292 294.224Z" fill="#263238"/>
<path opacity="0.3" d="M181.866 285.68L181.393 288.385L195.827 291.29L196.359 288.873L181.866 285.68Z" fill="black"/>
<path d="M180.875 291.164C181.332 291.395 181.843 291.5 182.354 291.467C182.905 291.489 183.456 291.439 183.994 291.319C184.31 291.249 184.621 291.16 184.926 291.053C185.11 290.997 185.285 290.913 185.443 290.802C185.556 290.72 185.64 290.604 185.681 290.471C185.723 290.337 185.719 290.194 185.672 290.063C185.62 289.949 185.542 289.848 185.445 289.768C185.347 289.689 185.233 289.633 185.11 289.605C184.926 289.565 184.737 289.552 184.549 289.568C183.659 289.593 182.791 289.848 182.028 290.307C181.215 290.795 180.868 291.275 180.912 291.319C180.957 291.364 181.393 291.002 182.191 290.625C182.933 290.282 183.739 290.096 184.556 290.078C184.881 290.078 185.147 290.115 185.199 290.27C185.251 290.425 185.199 290.351 185.133 290.432C185.015 290.509 184.888 290.571 184.756 290.617C184.47 290.723 184.179 290.814 183.884 290.891C183.38 291.023 182.865 291.107 182.346 291.142C181.856 291.116 181.365 291.123 180.875 291.164Z" fill="#263238"/>
<path d="M181.023 291.401C181.068 291.438 181.459 290.987 181.711 290.07C181.846 289.532 181.891 288.975 181.844 288.422C181.82 288.091 181.758 287.763 181.659 287.447C181.62 287.237 181.529 287.041 181.393 286.876C181.257 286.712 181.082 286.585 180.883 286.508C180.751 286.487 180.617 286.502 180.493 286.552C180.37 286.601 180.262 286.683 180.181 286.789C180.069 286.946 179.98 287.117 179.915 287.299C179.795 287.614 179.725 287.945 179.708 288.282C179.673 288.85 179.777 289.418 180.011 289.937C180.425 290.817 180.986 291.112 181.009 291.068C181.031 291.024 180.632 290.625 180.351 289.797C180.184 289.323 180.123 288.818 180.173 288.319C180.205 288.03 180.274 287.747 180.38 287.476C180.491 287.181 180.661 286.951 180.772 287.011C180.883 287.07 181.119 287.321 181.186 287.594C181.28 287.871 181.35 288.155 181.393 288.444C181.464 288.952 181.464 289.467 181.393 289.974C181.216 290.869 180.949 291.401 181.023 291.401Z" fill="#263238"/>
<path d="M278.701 283.589L272.367 275.311L272.034 274.882L261.214 282.916L271.214 293.899L270.852 305.022C265.279 306.456 264.444 309.242 264.444 309.242H276.018L286.535 288.991L278.701 283.589Z" fill="#1CA0E3"/>
<path opacity="0.6" d="M286.557 288.976L276.04 309.227L264.466 309.242L265.767 307.498L275.183 306.973L284.887 287.831L286.557 288.976Z" fill="white"/>
<path d="M270.94 299.922C271.029 300.041 271.679 299.664 272.588 299.686C273.498 299.708 274.141 300.085 274.229 299.967C274.318 299.848 273.69 299.228 272.596 299.176C271.502 299.124 270.822 299.834 270.94 299.922Z" fill="#263238"/>
<path d="M271.125 297.165C271.244 297.247 271.754 296.567 272.677 296.382C273.601 296.197 274.34 296.626 274.414 296.508C274.488 296.389 274.326 296.256 274 296.079C273.561 295.862 273.063 295.797 272.583 295.893C272.103 295.99 271.669 296.242 271.347 296.611C271.118 296.907 271.066 297.136 271.125 297.165Z" fill="#263238"/>
<path d="M271.051 293.618C271.177 293.684 271.569 293.012 272.374 292.731C273.18 292.45 273.904 292.731 273.963 292.583C274.022 292.435 273.853 292.369 273.527 292.251C273.1 292.097 272.632 292.097 272.204 292.251C271.78 292.405 271.418 292.696 271.177 293.078C271 293.381 270.985 293.618 271.051 293.618Z" fill="#263238"/>
<path d="M267.947 290.883C268.088 290.928 268.413 290.27 269.13 289.804C269.847 289.339 270.564 289.272 270.608 289.124C270.652 288.976 269.743 288.792 268.879 289.383C268.014 289.974 267.807 290.868 267.947 290.883Z" fill="#263238"/>
<path d="M266.439 288.504C266.499 288.54 266.876 288.075 267.445 287.291L268.428 285.902C268.649 285.616 268.828 285.3 268.96 284.963C268.999 284.842 269.014 284.714 269.003 284.587C268.991 284.46 268.954 284.336 268.893 284.224C268.822 284.104 268.719 284.006 268.595 283.941C268.47 283.877 268.33 283.85 268.191 283.862C267.784 283.94 267.409 284.135 267.112 284.424C266.828 284.652 266.579 284.921 266.373 285.222C266.044 285.727 265.837 286.301 265.767 286.9C265.646 287.438 265.739 288.003 266.026 288.474C266.029 287.965 266.061 287.457 266.122 286.951C266.232 286.421 266.448 285.918 266.757 285.473C266.939 285.218 267.153 284.987 267.393 284.786C267.62 284.579 267.894 284.429 268.191 284.35C268.235 284.344 268.279 284.352 268.319 284.371C268.358 284.391 268.391 284.422 268.413 284.461C268.451 284.566 268.451 284.681 268.413 284.786C268.293 285.071 268.142 285.341 267.962 285.592C267.666 286.087 267.371 286.567 267.075 287.07C266.788 287.511 266.573 287.995 266.439 288.504Z" fill="#263238"/>
<path d="M266.026 288.851C266.077 288.851 266.026 288.237 265.405 287.543C264.978 287.081 264.412 286.771 263.794 286.659C263.175 286.547 262.537 286.639 261.975 286.922C261.916 286.973 261.869 287.037 261.837 287.108C261.805 287.18 261.79 287.257 261.791 287.336C261.798 287.471 261.847 287.6 261.931 287.705C262.051 287.845 262.191 287.967 262.345 288.067C262.602 288.25 262.877 288.406 263.165 288.533C263.647 288.754 264.161 288.899 264.688 288.962C265.168 289.065 265.668 289.018 266.122 288.829C266.122 288.747 265.575 288.784 264.747 288.607C264.269 288.502 263.807 288.335 263.372 288.112C263.114 287.982 262.866 287.832 262.633 287.661C262.52 287.59 262.418 287.503 262.33 287.402C262.278 287.299 262.33 287.328 262.33 287.299C262.434 287.235 262.55 287.192 262.67 287.173C262.812 287.143 262.955 287.121 263.099 287.107C263.374 287.089 263.65 287.109 263.919 287.166C264.382 287.27 264.811 287.489 265.168 287.801C265.774 288.348 265.944 288.88 266.026 288.851Z" fill="#263238"/>
<path opacity="0.6" d="M277.319 288.629C277.319 288.901 277.4 289.167 277.551 289.393C277.702 289.619 277.917 289.795 278.168 289.899C278.419 290.003 278.695 290.03 278.962 289.977C279.229 289.924 279.474 289.793 279.666 289.601C279.858 289.409 279.989 289.164 280.042 288.897C280.095 288.631 280.068 288.354 279.964 288.103C279.86 287.852 279.684 287.637 279.458 287.486C279.231 287.335 278.966 287.254 278.694 287.254C278.329 287.254 277.98 287.399 277.722 287.657C277.464 287.915 277.319 288.265 277.319 288.629Z" fill="white"/>
<path opacity="0.3" d="M262.241 284.017L264.466 286.464L273.815 277.203L272.514 275.51L262.241 284.017Z" fill="black"/>
<path d="M233.461 91.2643C239.646 89.1151 246.323 88.8121 252.677 90.3922C255.493 91.0943 258.353 92.2621 260.157 94.5385C262.293 97.2287 262.559 100.895 262.891 104.317C263.559 111.277 264.84 118.165 266.72 124.9C268.287 130.502 270.267 135.986 271.117 141.773C271.967 147.56 271.576 153.687 268.641 158.713C264.118 166.459 254.503 169.881 245.538 170.036C240.822 170.11 235.989 169.422 231.806 167.235C227.622 165.047 224.141 161.226 223.121 156.621" fill="#1CA0E3"/>
<g opacity="0.5">
<path d="M233.461 91.2643C239.646 89.1151 246.323 88.8121 252.677 90.3922C255.493 91.0943 258.353 92.2621 260.157 94.5385C262.293 97.2287 262.559 100.895 262.891 104.317C263.559 111.277 264.84 118.165 266.72 124.9C268.287 130.502 270.267 135.986 271.117 141.773C271.967 147.56 271.576 153.687 268.641 158.713C264.118 166.459 254.503 169.881 245.538 170.036C240.822 170.11 235.989 169.422 231.806 167.235C227.622 165.047 224.141 161.226 223.121 156.621" fill="black"/>
</g>
<path d="M245.79 98.3595C246.761 99.2077 247.622 100.173 248.354 101.235C249.115 102.412 249.782 103.648 250.35 104.93C251.045 106.522 251.842 108.068 252.737 109.557C253.657 111.065 254.924 112.332 256.432 113.252C257.694 114.006 259.178 114.296 260.63 114.072C261.603 113.933 262.515 113.515 263.254 112.868C263.451 112.69 263.625 112.489 263.772 112.269C263.875 112.121 263.919 112.04 263.905 112.033C263.89 112.025 263.653 112.313 263.165 112.72C262.423 113.283 261.542 113.636 260.616 113.74C259.244 113.903 257.858 113.595 256.684 112.868C255.247 111.962 254.04 110.735 253.158 109.283C252.276 107.81 251.478 106.288 250.771 104.723C250.175 103.431 249.465 102.194 248.65 101.028C248.096 100.237 247.437 99.5262 246.691 98.9139C246.425 98.6787 246.12 98.4912 245.79 98.3595Z" fill="#EDEDED"/>
<path d="M258.775 167.589C258.794 167.395 258.794 167.2 258.775 167.006C258.775 166.577 258.775 166.03 258.775 165.35C258.775 163.916 258.671 161.832 258.561 159.267C258.331 154.094 257.932 147.028 257.312 139.209C256.691 131.389 255.989 124.309 255.412 119.202C255.116 116.644 254.865 114.575 254.673 113.156C254.584 112.483 254.503 111.936 254.444 111.515C254.426 111.322 254.389 111.132 254.333 110.946C254.31 111.138 254.31 111.331 254.333 111.523C254.37 111.951 254.422 112.498 254.473 113.171C254.621 114.649 254.821 116.718 255.057 119.231C255.553 124.353 256.21 131.426 256.824 139.246C257.437 147.065 257.895 154.153 258.206 159.282C258.361 161.802 258.487 163.864 258.575 165.357L258.694 167.013C258.704 167.207 258.731 167.4 258.775 167.589Z" fill="#EDEDED"/>
<path d="M256.935 136.193C256.935 136.319 259.766 136.289 263.225 135.853C266.684 135.417 269.433 134.767 269.411 134.648C269.389 134.53 266.61 134.959 263.166 135.388C259.721 135.816 256.928 136.031 256.935 136.193Z" fill="#EDEDED"/>
<path d="M259.218 136.097C258.994 136.512 258.862 136.971 258.834 137.442C258.749 137.943 258.697 138.45 258.679 138.957C258.653 139.289 258.709 139.621 258.842 139.926C258.924 140.111 259.057 140.269 259.226 140.382C259.395 140.494 259.592 140.556 259.795 140.561C259.91 140.566 260.025 140.544 260.13 140.497C260.236 140.449 260.328 140.378 260.401 140.288C260.529 140.127 260.604 139.931 260.615 139.726C260.625 139.405 260.58 139.086 260.482 138.78C260.359 138.274 260.19 137.779 259.98 137.302C259.618 136.511 259.278 136.09 259.241 136.119C259.345 136.569 259.493 137.007 259.684 137.428C259.84 137.893 259.97 138.367 260.076 138.847C260.144 139.109 260.174 139.381 260.164 139.652C260.164 139.903 260.017 140.059 259.81 140.059C259.315 140.059 259.115 139.46 259.137 138.928C259.159 138.396 259.137 137.871 259.181 137.45C259.25 137.002 259.263 136.548 259.218 136.097Z" fill="#EDEDED"/>
<path d="M227.365 93.9397L257.059 90.4724C260.947 90.0184 263.731 86.4985 263.277 82.6104L262.633 77.0973C262.179 73.2093 258.66 70.4254 254.771 70.8794L225.077 74.3466C221.189 74.8006 218.405 78.3206 218.859 82.2086L219.503 87.7217C219.957 91.6098 223.477 94.3936 227.365 93.9397Z" fill="#455A64"/>
<path d="M254.274 71.3534C254.274 71.3534 254.185 71.2943 253.993 71.2352C253.709 71.1541 253.416 71.1094 253.121 71.1021C252.017 71.1067 250.946 71.4785 250.076 72.159C248.745 73.096 247.688 74.3718 247.016 75.8545C246.265 77.6877 245.976 79.6775 246.174 81.6489C246.281 83.6377 246.978 85.5495 248.177 87.1403C249.161 88.4394 250.513 89.4127 252.057 89.934C253.084 90.2879 254.177 90.4091 255.257 90.2888C255.55 90.2564 255.84 90.197 256.122 90.1114C256.314 90.0522 256.41 90.0153 256.403 90.0005C256.395 89.9857 255.989 90.0596 255.242 90.104C254.195 90.1495 253.149 89.9836 252.168 89.6162C250.711 89.0782 249.444 88.1249 248.524 86.8742C247.404 85.3384 246.754 83.5101 246.654 81.6119C246.451 79.7195 246.704 77.8061 247.393 76.0318C248.024 74.6118 249.009 73.3776 250.253 72.4473C251.058 71.7819 252.05 71.384 253.092 71.3091C253.86 71.2574 254.267 71.3978 254.274 71.3534Z" fill="#263238"/>
<path d="M237.305 72.8538L241.887 72.403C240.662 72.7776 239.613 73.5803 238.931 74.6646C238.267 75.7426 237.838 76.9492 237.675 78.2048C236.854 83.4744 239.655 89.1358 244.156 91.9887L240.461 92.4765C240.461 92.4765 229.892 83.0384 237.275 72.8538" fill="#263238"/>
<path d="M232.116 82.5505C233.297 82.8773 234.538 82.9232 235.74 82.6844C236.942 82.4455 238.071 81.9286 239.037 81.1751C240.003 80.4215 240.78 79.4522 241.304 78.3447C241.828 77.2373 242.086 76.0225 242.057 74.7975C242.005 72.5285 240.97 70.2078 241.68 68.0423C242.168 66.5641 243.409 65.3963 243.831 63.896C244.451 61.6418 243.091 59.3728 241.798 57.4364C241.028 56.1498 240.069 54.9863 238.953 53.9849C238.391 53.486 237.726 53.1169 237.006 52.9036C236.285 52.6903 235.527 52.6381 234.784 52.7506" fill="#263238"/>
<path d="M211.126 52.9502C211.252 54.6649 210.121 56.2022 208.975 57.4882C207.83 58.7742 206.566 60.1267 206.315 61.8266C205.879 64.8494 208.835 67.6506 208.229 70.6438C207.896 72.2477 206.588 73.5337 206.352 75.1523C206.115 76.7709 206.965 78.2564 208.007 79.4463C209.049 80.6363 210.313 81.6636 211.237 82.92C212.114 84.3405 212.857 85.84 213.454 87.3989C214.051 88.9692 215.137 90.3062 216.551 91.2125C218.768 92.4099 221.843 91.8481 223.528 93.7032C225.213 95.5583 227.164 95.7727 229.175 97.1252" fill="#263238"/>
<path d="M237.563 55.5739C237.608 54.0218 236.166 52.8171 234.718 52.248C233.269 51.679 231.651 51.4572 230.357 50.5851C229.212 49.846 228.443 48.6191 227.475 47.6288C226.278 46.4214 224.781 45.5533 223.139 45.1133C221.496 44.6733 219.766 44.677 218.126 45.1242C216.485 45.5713 214.993 46.4459 213.801 47.6585C212.609 48.8711 211.76 50.3783 211.341 52.0263C210.786 54.2436 211.163 56.8673 212.915 58.3455C214.947 60.0528 217.955 59.6758 220.557 59.1437C223.159 58.6116 226.1 58.0868 228.273 59.6167C229.581 60.5332 230.328 62.0335 231.133 63.423C231.939 64.8125 232.937 66.2241 234.452 66.7415C235.967 67.2588 238.022 66.3645 238.081 64.7681" fill="#263238"/>
<path d="M231.392 55.8992C232.04 55.9677 232.639 56.2781 233.07 56.7684C233.5 57.2587 233.729 57.8931 233.713 58.5451L232.16 93.755C232.094 97.9161 226.019 100.252 221.562 100.148C217.068 100.045 216.921 97.8348 216.869 93.8807C216.773 87.2733 216.78 84.7899 216.78 84.8269C216.78 84.8638 211.097 83.8735 209.936 76.4605C209.36 72.765 209.559 66.7267 209.884 61.7897C210.173 57.3552 213.129 51.8933 217.564 52.3663L231.392 55.8992Z" fill="#FFBE9D"/>
<path d="M211.289 66.0246C211.285 66.273 211.379 66.513 211.55 66.6928C211.722 66.8726 211.957 66.9777 212.205 66.9854C212.325 66.9934 212.446 66.9775 212.56 66.9387C212.674 66.8998 212.779 66.8387 212.869 66.759C212.959 66.6792 213.032 66.5824 213.084 66.4741C213.137 66.3658 213.167 66.2482 213.174 66.1281C213.178 65.8809 213.085 65.642 212.915 65.4624C212.745 65.2828 212.512 65.1769 212.265 65.1673C212.144 65.1582 212.023 65.1734 211.908 65.2118C211.793 65.2502 211.687 65.3111 211.597 65.3909C211.506 65.4708 211.432 65.568 211.379 65.6768C211.326 65.7856 211.296 65.9038 211.289 66.0246Z" fill="#263238"/>
<path d="M211.186 64.9307C211.304 65.0564 212.028 64.5242 213.048 64.5316C214.068 64.539 214.822 65.049 214.933 64.9233C215.044 64.7977 214.866 64.6425 214.541 64.406C214.106 64.1067 213.591 63.9445 213.063 63.9403C212.533 63.9391 212.016 64.1046 211.585 64.4134C211.237 64.6573 211.126 64.879 211.186 64.9307Z" fill="#263238"/>
<path d="M221.473 66.2833C221.469 66.5317 221.563 66.7717 221.735 66.9515C221.906 67.1313 222.142 67.2364 222.39 67.2441C222.51 67.2542 222.631 67.24 222.746 67.2025C222.86 67.1649 222.966 67.1047 223.057 67.0254C223.148 66.9462 223.222 66.8495 223.275 66.741C223.328 66.6326 223.359 66.5147 223.365 66.3942C223.37 66.1463 223.277 65.9065 223.107 65.7258C222.937 65.545 222.704 65.4375 222.456 65.426C222.335 65.4169 222.214 65.432 222.099 65.4703C221.984 65.5087 221.877 65.5695 221.786 65.6492C221.694 65.729 221.62 65.8261 221.566 65.9349C221.512 66.0438 221.481 66.1622 221.473 66.2833Z" fill="#263238"/>
<path d="M221.244 65.1451C221.363 65.2708 222.08 64.7386 223.107 64.746C224.134 64.7534 224.873 65.2634 224.984 65.1377C225.095 65.0121 224.925 64.8569 224.592 64.6204C224.16 64.316 223.643 64.1533 223.114 64.1548C222.583 64.1483 222.065 64.3143 221.636 64.6278C221.303 64.8643 221.185 65.0934 221.244 65.1451Z" fill="#263238"/>
<path d="M217.512 72.7282C216.973 72.5557 216.414 72.4514 215.849 72.4177C215.591 72.4177 215.347 72.3438 215.302 72.1664C215.276 71.8963 215.335 71.6247 215.472 71.3904L216.256 69.4023C216.972 67.7261 217.555 65.9963 218 64.2287C217.882 64.1844 216.914 66.4459 215.842 69.2692C215.576 70.0083 215.332 70.6365 215.103 71.2722C214.935 71.5843 214.886 71.9463 214.962 72.2921C215.001 72.3842 215.059 72.4665 215.133 72.533C215.207 72.5996 215.295 72.6486 215.391 72.6764C215.536 72.717 215.685 72.7394 215.835 72.7429C216.392 72.8047 216.956 72.7997 217.512 72.7282Z" fill="#263238"/>
<path d="M216.78 84.8269C220.267 84.8987 223.705 84.0033 226.714 82.2401C226.714 82.2401 224.26 87.288 216.869 86.5785L216.78 84.8269Z" fill="#EB996E"/>
<path d="M217.941 75.1892C218.138 74.946 218.392 74.7562 218.682 74.6373C218.971 74.5185 219.286 74.4744 219.596 74.5092C219.822 74.5317 220.041 74.5989 220.24 74.7067C220.439 74.8146 220.615 74.961 220.757 75.1375C220.893 75.3085 220.973 75.5173 220.986 75.7355C220.999 75.9537 220.945 76.1707 220.831 76.3569C220.666 76.5392 220.451 76.6681 220.213 76.7274C219.974 76.7866 219.724 76.7735 219.493 76.6895C219.009 76.5186 218.564 76.2522 218.185 75.9061C218.069 75.8261 217.971 75.7229 217.897 75.6031C217.856 75.5485 217.835 75.4824 217.835 75.4146C217.835 75.3468 217.856 75.2807 217.897 75.2261" fill="#EB996E"/>
<path d="M220.52 73.4376C220.358 73.4376 220.35 74.5388 219.397 75.3223C218.443 76.1057 217.261 75.9875 217.253 76.1427C217.246 76.2979 217.52 76.357 217.993 76.3718C218.644 76.3851 219.278 76.1648 219.781 75.7509C220.268 75.3588 220.582 74.7906 220.653 74.1693C220.72 73.7111 220.565 73.4302 220.52 73.4376Z" fill="#263238"/>
<path d="M220.786 63.3565C220.882 63.6299 221.91 63.5043 223.107 63.6521C224.304 63.7999 225.28 64.1251 225.435 63.8812C225.509 63.7556 225.339 63.4969 224.947 63.2234C224.429 62.8886 223.839 62.6809 223.225 62.6174C222.611 62.5435 221.989 62.6144 221.407 62.8243C220.964 63.0239 220.742 63.2234 220.786 63.3565Z" fill="#263238"/>
<path d="M211.57 61.9744C211.747 62.2036 212.457 61.9744 213.3 61.9744C214.142 61.9744 214.866 62.1297 215.029 61.8858C215.103 61.7749 214.992 61.5384 214.682 61.3167C214.261 61.0512 213.77 60.9171 213.272 60.9316C212.775 60.9461 212.293 61.1084 211.888 61.398C211.592 61.6197 211.489 61.8636 211.57 61.9744Z" fill="#263238"/>
<path d="M236.566 80.2815C235.541 80.4879 234.483 80.4476 233.477 80.1639C232.471 79.8802 231.547 79.3613 230.782 78.65C230.017 77.9387 229.431 77.0555 229.075 76.0733C228.718 75.0911 228.6 74.0382 228.731 73.0015C228.968 71.1834 229.943 69.3061 229.315 67.6062C228.48 65.3298 225.287 64.6499 224.437 62.3587C223.949 61.0357 224.393 59.4911 223.831 58.1977C223.269 56.9043 222.028 56.276 220.779 55.8252C219.494 55.4938 218.27 54.9626 217.15 54.251C216.1 53.438 215.45 51.9007 216.123 50.7625C221.66 51.4221 227.099 52.7421 232.323 54.6944C233.528 55.1452 234.799 55.6922 235.516 56.7638C236.233 57.8355 236.255 59.3728 236.174 60.7401L235.243 80.6954" fill="#263238"/>
<path d="M240.557 86.4455C240.553 85.8101 240.423 85.1818 240.172 84.5978C239.866 83.9218 239.437 83.3079 238.908 82.7871C238.198 82.1081 237.391 81.5378 236.514 81.0946C235.546 80.5698 234.43 80.0894 233.291 79.439C232.037 78.7723 230.98 77.7887 230.224 76.5862C229.828 75.9137 229.614 75.1494 229.603 74.3689C229.636 73.5764 229.747 72.789 229.936 72.0186C230.142 71.2606 230.195 70.4691 230.091 69.6905C230.011 69.3075 229.846 68.9471 229.61 68.6353C229.374 68.3234 229.071 68.0679 228.724 67.8871C227.985 67.4733 227.246 67.2146 226.47 66.8598C225.675 66.5381 225.005 65.971 224.555 65.2412C224.182 64.5171 223.989 63.7132 223.994 62.8983C223.994 62.1223 223.994 61.3758 223.994 60.6811C224.011 59.9869 223.911 59.2947 223.698 58.6338C223.483 58.0282 223.092 57.5007 222.575 57.1187C221.574 56.476 220.456 56.0366 219.286 55.8253C218.295 55.6281 217.348 55.2524 216.492 54.7167C215.846 54.2773 215.373 53.6266 215.154 52.8764C215.003 52.4103 215.003 51.9086 215.154 51.4425C215.212 51.2858 215.297 51.1407 215.406 51.0139C215.406 51.0139 215.324 51.1691 215.228 51.4721C215.103 51.9218 215.119 52.3988 215.273 52.8394C215.504 53.5374 215.965 54.1365 216.581 54.5393C217.428 55.0385 218.356 55.3861 219.323 55.5666C220.535 55.769 221.695 56.2085 222.737 56.86C223.308 57.2764 223.743 57.8525 223.986 58.5156C224.215 59.2117 224.328 59.9409 224.319 60.6737C224.319 61.4128 224.319 62.1519 224.319 62.8909C224.317 63.646 224.494 64.3906 224.836 65.0638C225.249 65.7298 225.862 66.2474 226.588 66.542C227.327 66.8894 228.118 67.1407 228.879 67.5841C229.261 67.8095 229.601 68.0996 229.884 68.4415C230.155 68.7929 230.34 69.203 230.424 69.6388C230.535 70.4691 230.48 71.3134 230.261 72.1221C230.074 72.8653 229.963 73.6255 229.929 74.3911C229.932 75.1135 230.125 75.8223 230.49 76.4457C231.209 77.6014 232.215 78.5511 233.41 79.2025C234.518 79.8529 235.627 80.3481 236.602 80.895C237.494 81.3619 238.309 81.9626 239.019 82.6762C239.555 83.2226 239.979 83.8677 240.268 84.5756C240.45 85.022 240.548 85.498 240.557 85.9799C240.566 86.1054 240.566 86.2314 240.557 86.3568C240.571 86.4012 240.564 86.4455 240.557 86.4455Z" fill="#263238"/>
<path d="M218.953 91.5304C218.84 91.587 218.717 91.6244 218.591 91.6413C218.441 91.6779 218.287 91.7026 218.133 91.7152C217.925 91.7465 217.715 91.7614 217.505 91.7595C216.141 91.7609 214.809 91.3429 213.691 90.5622C212.909 90.0336 212.253 89.3397 211.769 88.5297C211.253 87.5849 210.918 86.5523 210.779 85.4847C210.646 84.347 210.321 83.24 209.818 82.2106C209.242 81.1833 208.17 80.5033 207.202 79.6238C206.213 78.7661 205.567 77.5796 205.384 76.2831C205.211 75.0784 205.454 73.8509 206.071 72.802C206.673 71.9476 207.19 71.0367 207.616 70.0822C207.906 69.2296 208.014 68.3258 207.934 67.4289C207.787 66.1153 207.471 64.826 206.995 63.5931C206.809 63.1416 206.649 62.6802 206.515 62.211C206.591 62.3126 206.654 62.4246 206.699 62.5436C206.803 62.7727 206.958 63.1053 207.135 63.5413C207.674 64.7724 208.035 66.074 208.207 67.4067C208.307 68.3454 208.209 69.2947 207.919 70.1931C207.501 71.1708 206.986 72.1042 206.382 72.9794C205.809 73.9607 205.59 75.1083 205.761 76.2314C205.931 77.4404 206.535 78.5463 207.461 79.3429C208.384 80.1855 209.508 80.895 210.143 82.0184C210.667 83.0856 211 84.2363 211.126 85.4182C211.249 86.4513 211.56 87.4533 212.043 88.3745C212.494 89.155 213.109 89.8283 213.846 90.3479C214.914 91.1225 216.187 91.5624 217.505 91.6117C218.436 91.6339 218.946 91.4861 218.953 91.5304Z" fill="#263238"/>
<path d="M240.52 56.2022C240.592 56.288 240.636 56.3937 240.646 56.5052C240.661 56.6649 240.644 56.8262 240.594 56.9789C240.545 57.1316 240.464 57.2723 240.357 57.3921C240.193 57.5891 239.991 57.7504 239.762 57.8661C239.533 57.9818 239.283 58.0494 239.027 58.0647C238.366 58.0244 237.724 57.8322 237.15 57.503C236.487 57.1326 235.749 56.9154 234.992 56.8674C234.111 56.8441 233.23 56.9235 232.368 57.1039C231.395 57.3145 230.406 57.4407 229.411 57.4808C228.292 57.5252 227.201 57.1269 226.374 56.3722C225.631 55.5853 225.04 54.6683 224.63 53.6671C224.252 52.77 223.776 51.9174 223.211 51.1247C222.728 50.4762 222.067 49.9826 221.308 49.7043C220.549 49.426 219.726 49.3751 218.939 49.5578C217.866 49.8431 216.943 50.528 216.359 51.4721C216.154 51.8248 215.971 52.1902 215.812 52.5659C215.812 52.5659 215.812 52.455 215.871 52.2481C215.953 51.9483 216.072 51.6602 216.226 51.3908C216.697 50.5201 217.456 49.84 218.372 49.4666C219.289 49.0932 220.307 49.0497 221.252 49.3435C222.136 49.6192 222.911 50.1645 223.469 50.903C224.057 51.7127 224.553 52.5853 224.947 53.5045C225.344 54.4605 225.91 55.3368 226.618 56.0913C227.371 56.7828 228.368 57.147 229.389 57.1039C230.363 57.0663 231.332 56.9476 232.286 56.7491C233.177 56.5726 234.085 56.5031 234.992 56.5422C235.788 56.6209 236.557 56.8732 237.246 57.2813C237.781 57.606 238.382 57.8079 239.005 57.8725C239.235 57.8655 239.461 57.8128 239.67 57.7177C239.879 57.6225 240.068 57.4867 240.224 57.3182C240.327 57.2155 240.408 57.0932 240.462 56.9587C240.517 56.8241 240.544 56.68 240.542 56.5348C240.52 56.3057 240.461 56.2096 240.52 56.2022Z" fill="#455A64"/>
<path d="M236.329 54.0663C235.107 53.7856 234.019 53.091 233.249 52.1001C232.48 51.1091 232.077 49.8828 232.108 48.6288C232.14 47.3748 232.603 46.1701 233.421 45.2188C234.239 44.2675 235.36 43.628 236.595 43.4087C237.179 43.2655 237.79 43.2848 238.364 43.4646C238.937 43.6444 239.45 43.9778 239.847 44.4286C240.527 45.3525 240.483 46.7346 241.325 47.4884C242.168 48.2423 243.676 47.9467 244.873 48.2275C245.791 48.4893 246.586 49.0683 247.116 49.8615C247.647 50.6547 247.879 51.6104 247.77 52.5586C247.62 53.501 247.224 54.3874 246.624 55.1293C246.023 55.8711 245.239 56.4424 244.348 56.7861C242.545 57.4443 240.573 57.4807 238.746 56.8896C236.935 56.3023 235.213 55.4666 233.632 54.4063" fill="#263238"/>
<path d="M245.235 48.7079C245.165 49.1973 244.98 49.6633 244.696 50.0678C244.081 51.0937 243.229 51.9578 242.212 52.5881C241.196 53.2225 240.043 53.6075 238.85 53.7115C238.355 53.788 237.849 53.7501 237.371 53.6006C237.371 53.5341 237.933 53.6006 238.798 53.438C239.928 53.2663 241.012 52.8665 241.983 52.2629C242.952 51.6539 243.789 50.8573 244.444 49.92C244.954 49.2031 245.176 48.6857 245.235 48.7079Z" fill="#455A64"/>
<path d="M241.318 56.9043C240.366 55.6493 239.171 54.5984 237.805 53.8138C236.439 53.0292 234.929 52.5269 233.365 52.3367C233.832 52.246 234.311 52.246 234.777 52.3367C237.066 52.6723 239.142 53.8635 240.586 55.67C240.913 56.0261 241.162 56.4465 241.318 56.9043Z" fill="#1CA0E3"/>
<path d="M187.461 137.398L175.481 135.077L177.639 138.144L172.524 140.702L168.245 138.699C168.578 139.573 168.996 140.412 169.494 141.204C170.433 142.764 171.711 144.02 172.495 144.079C172.758 145.159 173.304 146.149 174.076 146.947C174.772 147.64 175.635 148.141 176.582 148.4C177.53 148.659 178.528 148.668 179.479 148.425L187.528 145.513L187.461 137.398Z" fill="#FFBE9D"/>
<path d="M175.377 143.407C175.179 143.655 174.929 143.855 174.644 143.995C174.359 144.134 174.046 144.208 173.729 144.212C173.418 144.277 173.097 144.274 172.787 144.204C172.477 144.134 172.186 143.998 171.933 143.806C171.977 143.695 172.739 143.946 173.685 143.806C174.631 143.665 175.318 143.311 175.377 143.407Z" fill="#EB996E"/>
<path d="M176.959 145.956C177.033 146.03 176.515 146.607 175.628 146.836C175.371 146.936 175.095 146.977 174.821 146.956C174.546 146.936 174.279 146.854 174.039 146.718C174.039 146.607 174.779 146.673 175.518 146.466C176.257 146.259 176.87 145.875 176.959 145.956Z" fill="#EB996E"/>
<path d="M179.967 136.932C179.639 137.169 179.29 137.374 178.925 137.546C178.282 137.908 177.447 138.514 176.508 139.164C175.704 139.747 174.81 140.194 173.862 140.487C173.471 140.635 173.047 140.673 172.635 140.598C172.635 140.539 173.093 140.487 173.781 140.229C174.668 139.865 175.511 139.401 176.294 138.847C177.088 138.268 177.926 137.752 178.799 137.302C179.155 137.091 179.554 136.965 179.967 136.932Z" fill="#EB996E"/>
<path d="M252.64 157.287C252.64 157.287 253.047 157.545 254.067 159.356C257.193 164.936 258.457 178.306 246.676 190.242C231.436 205.66 213.587 230.892 213.587 230.892L199.545 290.137L178.377 285.547L189.286 223.974L219.197 168.484L252.64 157.287Z" fill="#263238"/>
<path d="M275.988 271.948L243.38 222.045L233.491 178.971L208.303 191.351L220.934 235.068L261.236 285.266L275.988 271.948Z" fill="#263238"/>
<path d="M199.56 290.137C199.565 290.037 199.582 289.937 199.612 289.841C199.656 289.634 199.715 289.353 199.789 288.991C199.967 288.252 200.21 287.136 200.528 285.732L203.3 273.774C205.672 263.663 208.946 249.731 212.568 234.343C212.849 233.146 213.13 231.956 213.396 230.848V230.796C222.634 218.971 231.052 208.512 237.246 201.085C240.35 197.389 242.885 194.433 244.681 192.408C245.561 191.395 246.285 190.641 246.765 190.124L247.312 189.54C247.438 189.407 247.504 189.341 247.512 189.348C247.461 189.424 247.404 189.496 247.342 189.562L246.817 190.168C246.359 190.708 245.657 191.477 244.785 192.504C243.025 194.536 240.527 197.522 237.453 201.255C231.311 208.727 222.93 219.214 213.699 231.032V230.958C213.44 232.067 213.159 233.257 212.871 234.454L203.566 273.84C202.346 278.858 201.349 282.931 200.676 285.769C200.329 287.158 200.063 288.252 199.87 289.006C199.782 289.368 199.708 289.642 199.656 289.849C199.633 289.947 199.601 290.044 199.56 290.137Z" fill="#455A64"/>
<path d="M237.8 173.036C237.649 173.162 237.476 173.257 237.29 173.317C236.801 173.529 236.294 173.695 235.775 173.813C234.047 174.207 232.247 174.154 230.545 173.658C228.843 173.163 227.295 172.242 226.049 170.982C225.673 170.603 225.332 170.193 225.029 169.755C224.822 169.437 224.726 169.252 224.748 169.238C224.77 169.223 225.265 169.888 226.226 170.782C227.482 171.95 228.993 172.808 230.64 173.288C232.286 173.768 234.022 173.856 235.708 173.546C237.017 173.31 237.778 172.977 237.8 173.036Z" fill="#455A64"/>
<path d="M255.782 159.844C243.025 166.562 222.324 170.575 215.702 167.848L215.472 143.274C215.472 143.274 206.404 128.322 206.367 122.668C206.315 114.538 216.463 95.9353 216.463 95.9353L231.695 91.8482C234.763 91.7828 237.797 92.4893 240.52 93.9028C243.369 95.4815 245.687 97.8677 247.182 100.761C248.678 103.654 249.283 106.926 248.923 110.163L245.087 134.612L255.782 159.844Z" fill="#1CA0E3"/>
<g opacity="0.3">
<path d="M239.433 93.8806C240.32 93.7476 240.646 95.1888 240.017 95.8244C239.389 96.46 238.391 96.4896 237.512 96.6226C233.543 97.2434 230.476 100.643 229.035 104.39C227.593 108.138 227.453 112.232 227.216 116.216C226.98 120.199 226.588 124.346 224.704 127.901C222.944 124.781 221.901 121.309 221.65 117.736C221.4 114.163 221.948 110.579 223.255 107.245C224.562 103.91 226.595 100.908 229.207 98.4573C231.819 96.0064 234.944 94.1678 238.354 93.075" fill="black"/>
</g>
<path d="M240.52 93.9028C240.52 93.9028 238.302 90.2887 230.971 91.8555C226.063 92.905 215.332 103.215 218.325 119.778C221.318 136.341 229.345 142.209 229.345 142.209C229.345 142.209 221.954 116.851 226.063 105.787C227.139 102.664 229.059 99.8994 231.611 97.8014C234.163 95.7035 237.247 94.354 240.52 93.9028Z" fill="#263238"/>
<g opacity="0.3">
<path d="M215.753 148.492C218.791 149.467 221.703 150.709 224.866 151.108C228.031 151.627 231.278 151.288 234.267 150.125C238.325 148.396 241.34 144.7 242.892 140.569C244.444 136.437 244.659 131.914 244.245 127.516C241.473 130.946 241.806 136.023 239.448 139.756C237.97 142.084 235.568 143.673 233.1 144.929C227.698 147.526 221.742 148.757 215.753 148.514" fill="black"/>
</g>
<path d="M224.888 123.385C224.888 123.385 223.898 142.039 246.654 138.329L248.945 143.724C248.945 143.724 225.021 148.78 221.599 128.943L224.888 123.385Z" fill="#263238"/>
<path d="M245.627 100.2C246.585 101.623 247.23 103.233 247.52 104.923C247.811 106.614 247.74 108.346 247.312 110.007L241.643 135.38C239.212 142.52 232.272 146.858 227.956 147.435L187.535 151.714V136.629L225.058 131.057L226.817 110.51C226.973 107.746 228.333 102.779 230.092 100.636C232.058 98.2487 235.08 94.9967 240.017 95.8245C243.04 96.3271 244.326 98.3448 245.627 100.2Z" fill="#1CA0E3"/>
<path d="M246.795 110.998C246.801 111.188 246.788 111.379 246.758 111.567C246.713 111.944 246.647 112.491 246.551 113.2C246.358 114.619 246.063 116.659 245.612 119.172C245.161 121.685 244.585 124.678 243.823 127.967C243.446 129.608 243.04 131.337 242.545 133.141C242.061 134.987 241.398 136.782 240.564 138.499C239.722 140.226 238.564 141.781 237.149 143.081C235.831 144.287 234.335 145.284 232.715 146.038C229.967 147.269 227.031 148.031 224.031 148.292C221.481 148.551 219.412 148.565 217.985 148.58H216.337C216.148 148.597 215.957 148.597 215.768 148.58C215.956 148.547 216.146 148.532 216.337 148.536L217.978 148.469C219.404 148.41 221.474 148.351 224.001 148.055C226.962 147.763 229.853 146.984 232.56 145.749C234.149 145.015 235.616 144.043 236.913 142.867C238.287 141.588 239.414 140.067 240.239 138.381C241.059 136.686 241.714 134.916 242.197 133.096C242.693 131.337 243.107 129.615 243.498 127.975C244.237 124.693 244.888 121.722 245.361 119.216C245.834 116.711 246.181 114.678 246.418 113.304C246.536 112.631 246.625 112.092 246.691 111.685C246.708 111.454 246.743 111.224 246.795 110.998Z" fill="#263238"/>
<path d="M226.145 135.38C225.724 134.695 225.417 133.946 225.236 133.163C224.928 132.427 224.744 131.645 224.689 130.85C225.419 132.261 225.918 133.781 226.167 135.351L226.145 135.38Z" fill="#263238"/>
<path d="M228.443 134.804C227.645 134.43 226.94 133.882 226.381 133.2C225.732 132.607 225.226 131.874 224.903 131.057C225.534 131.646 226.127 132.275 226.677 132.941C227.307 133.521 227.898 134.143 228.443 134.804Z" fill="#263238"/>
<path d="M191.053 136.112L191.223 136.068L191.725 135.971L193.662 135.654L200.853 134.523L224.999 130.872L224.836 131.042C224.969 129.638 225.11 128.159 225.258 126.652C225.738 121.323 226.248 116.245 226.499 111.611C226.674 109.408 227.096 107.231 227.756 105.122C228.286 103.255 229.186 101.513 230.402 100C232.796 97.3913 235.479 96.0092 237.452 95.7579C238.206 95.6506 238.972 95.6656 239.721 95.8023C239.973 95.854 240.165 95.9131 240.291 95.9501L240.483 96.0166C239.496 95.7901 238.475 95.7525 237.475 95.9058C235.553 96.194 232.937 97.5909 230.609 100.185C229.431 101.674 228.566 103.386 228.066 105.218C227.422 107.307 227.015 109.461 226.854 111.641C226.625 116.275 226.115 121.36 225.635 126.689C225.494 128.167 225.354 129.645 225.213 131.079V131.227H225.065L200.868 134.759L193.662 135.765L191.711 136.023L191.208 136.082L191.053 136.112Z" fill="#263238"/>
<path d="M214.186 148.403C214.083 148.403 213.654 144.996 213.233 140.776C212.811 136.555 212.553 133.111 212.656 133.096C213.108 135.623 213.429 138.171 213.617 140.731C213.938 143.277 214.128 145.838 214.186 148.403Z" fill="#FAFAFA"/>
<path d="M243.779 125.499C242.924 125.572 242.064 125.585 241.207 125.536C239.618 125.536 237.431 125.447 235.006 125.358C232.582 125.27 230.395 125.166 228.813 125.07C227.956 125.056 227.101 124.98 226.256 124.841C227.11 124.757 227.971 124.742 228.828 124.797C230.409 124.797 232.604 124.885 235.021 124.974C237.438 125.063 239.626 125.166 241.215 125.262C242.075 125.272 242.932 125.352 243.779 125.499Z" fill="#FAFAFA"/>
<path d="M218.118 120.672C217.57 120.813 217.006 120.888 216.44 120.894C215.406 120.968 213.964 121.02 212.375 120.99C210.786 120.961 209.345 120.85 208.31 120.732C207.746 120.706 207.187 120.61 206.648 120.443C207.208 120.388 207.772 120.388 208.333 120.443C209.367 120.495 210.801 120.554 212.383 120.584C213.964 120.613 215.398 120.584 216.433 120.584C216.996 120.551 217.561 120.581 218.118 120.672Z" fill="#FAFAFA"/>
<path d="M221.459 103.141C221.4 103.237 219.848 102.402 217.837 101.663C215.827 100.924 214.142 100.473 214.142 100.362C216.77 100.683 219.281 101.637 221.459 103.141Z" fill="#FAFAFA"/>
<path d="M250.815 149.253C250.713 149.325 250.601 149.383 250.483 149.423L249.507 149.822C248.664 150.169 247.423 150.628 245.878 151.167C241.847 152.555 237.744 153.725 233.587 154.67C229.43 155.638 225.223 156.378 220.986 156.888C219.36 157.072 218.029 157.198 217.128 157.257L216.078 157.316C215.956 157.336 215.831 157.336 215.709 157.316C215.826 157.275 215.947 157.251 216.071 157.242L217.113 157.109C218.022 157.006 219.33 156.843 220.956 156.621C224.186 156.178 228.643 155.446 233.521 154.338C238.399 153.229 242.707 151.943 245.812 150.931C247.364 150.428 248.62 150.007 249.507 149.704L250.505 149.371C250.604 149.322 250.708 149.283 250.815 149.253Z" fill="#FAFAFA"/>
<path d="M248.406 105.055C248.406 105.159 244.045 105.107 238.672 104.93C233.299 104.752 228.953 104.531 228.953 104.427C228.953 104.324 233.314 104.376 238.687 104.546C244.06 104.716 248.406 104.945 248.406 105.055Z" fill="#FAFAFA"/>
<path d="M196.323 150.598C196.038 148.144 195.88 145.677 195.85 143.207C195.689 140.747 195.66 138.28 195.761 135.816C196.046 138.27 196.204 140.737 196.234 143.207C196.395 145.667 196.424 148.134 196.323 150.598Z" fill="#FAFAFA"/>
<path d="M113.642 75.0118C120.222 73.7903 127.015 74.504 133.198 77.0664C135.94 78.212 138.66 79.8306 140.138 82.41C141.897 85.455 141.616 89.2096 141.416 92.7202C141.03 99.8725 141.277 107.045 142.155 114.154C142.895 120.066 144.055 125.979 144.033 131.892C144.011 137.804 142.68 144.027 138.948 148.669C133.19 155.816 122.939 157.826 113.819 156.607C109.03 155.971 104.248 154.537 100.338 151.684C96.4284 148.831 93.5017 144.434 93.1691 139.615" fill="#455A64"/>
<path d="M125.038 84.073C125.891 85.0813 126.616 86.1909 127.196 87.3767C127.796 88.6827 128.29 90.0346 128.674 91.4195C129.136 93.1366 129.706 94.8227 130.382 96.4675C131.086 98.1407 132.181 99.6207 133.575 100.784C134.737 101.739 136.194 102.262 137.699 102.262C138.698 102.272 139.678 101.992 140.522 101.456C140.747 101.308 140.954 101.131 141.135 100.932C141.261 100.798 141.32 100.717 141.305 100.71C141.291 100.702 141.01 100.954 140.418 101.294C139.582 101.751 138.636 101.971 137.684 101.929C136.27 101.886 134.913 101.365 133.833 100.451C132.519 99.317 131.486 97.8924 130.818 96.2901C130.146 94.6643 129.568 93.0011 129.088 91.3087C128.681 89.9102 128.151 88.55 127.507 87.2437C127.064 86.3624 126.504 85.5446 125.844 84.8121C125.619 84.5217 125.347 84.2717 125.038 84.073Z" fill="#263238"/>
<path d="M127.647 156.148C127.704 155.961 127.741 155.767 127.758 155.572C127.817 155.138 127.891 154.577 127.979 153.887C128.164 152.409 128.408 150.31 128.718 147.693C129.273 142.453 129.938 135.21 130.514 127.198C131.091 119.187 131.438 111.914 131.63 106.645C131.726 104.013 131.786 101.885 131.808 100.414C131.808 99.7194 131.808 99.1577 131.808 98.7216C131.83 98.5252 131.83 98.3268 131.808 98.1303C131.766 98.3223 131.744 98.5179 131.741 98.7142C131.741 99.1577 131.675 99.712 131.63 100.407C131.549 101.937 131.438 104.05 131.298 106.63C131.017 111.892 130.603 119.15 130.041 127.162C129.48 135.173 128.851 142.416 128.386 147.656C128.157 150.236 127.972 152.342 127.839 153.865C127.78 154.559 127.735 155.121 127.706 155.557C127.663 155.751 127.643 155.95 127.647 156.148Z" fill="#263238"/>
<path d="M130.566 124.05C130.566 124.176 133.419 124.575 136.989 124.663C140.559 124.752 143.441 124.516 143.434 124.383C143.426 124.25 140.551 124.272 137.004 124.176C133.456 124.08 130.581 123.91 130.566 124.05Z" fill="#263238"/>
<path d="M132.887 124.368C132.599 124.754 132.397 125.198 132.296 125.669C132.136 126.152 132.007 126.646 131.912 127.147C131.831 127.477 131.831 127.822 131.912 128.152C131.968 128.353 132.079 128.535 132.233 128.676C132.388 128.817 132.578 128.912 132.784 128.95C132.9 128.968 133.018 128.96 133.13 128.927C133.243 128.893 133.347 128.836 133.434 128.758C133.592 128.617 133.699 128.427 133.737 128.218C133.789 127.895 133.789 127.566 133.737 127.243C133.686 126.723 133.587 126.208 133.442 125.706C133.355 125.228 133.157 124.778 132.865 124.39C132.894 124.863 132.976 125.332 133.109 125.787C133.198 126.276 133.257 126.769 133.286 127.265C133.328 127.539 133.328 127.818 133.286 128.093C133.227 128.344 133.072 128.485 132.873 128.455C132.363 128.366 132.252 127.716 132.355 127.206C132.459 126.696 132.54 126.134 132.629 125.728C132.772 125.287 132.859 124.83 132.887 124.368Z" fill="#263238"/>
<path d="M106.886 76.8061L137.814 77.8267C141.726 77.9558 145.003 74.8888 145.132 70.9765L145.33 64.9636C145.459 61.0512 142.392 57.775 138.48 57.6459L107.551 56.6253C103.639 56.4962 100.363 59.5631 100.234 63.4755L100.035 69.4883C99.9063 73.4007 102.973 76.677 106.886 76.8061Z" fill="#263238"/>
<path d="M137.743 58.0277C137.743 58.0277 137.662 57.9538 137.477 57.8651C137.203 57.7367 136.912 57.6471 136.612 57.5991C135.496 57.4318 134.356 57.6452 133.375 58.2051C131.887 58.9429 130.624 60.0658 129.717 61.4571C128.674 63.1966 128.078 65.1667 127.98 67.1924C127.785 69.2232 128.199 71.2661 129.17 73.0607C129.968 74.5269 131.188 75.7192 132.673 76.4826C133.66 76.9954 134.747 77.2832 135.858 77.3252C136.16 77.3377 136.462 77.3229 136.76 77.2808C136.865 77.278 136.969 77.2529 137.063 77.2069C137.063 77.1626 136.635 77.2069 135.873 77.133C134.806 77.0238 133.772 76.6968 132.836 76.1722C131.443 75.4074 130.304 74.2511 129.561 72.8463C128.659 71.12 128.279 69.1682 128.468 67.2293C128.562 65.2811 129.12 63.3835 130.094 61.6936C130.95 60.3542 132.136 59.2573 133.538 58.5081C134.453 57.9482 135.52 57.6897 136.59 57.7691C137.344 57.8504 137.728 58.0721 137.743 58.0277Z" fill="#455A64"/>
<path d="M120.338 56.9634L125.038 57.1999C123.746 57.3977 122.568 58.0535 121.72 59.0476C120.882 60.037 120.265 61.1935 119.909 62.44C118.275 67.6136 120.249 73.8071 124.343 77.3769L120.537 77.3178C120.537 77.3178 111.276 66.1428 120.308 56.9634" fill="#455A64"/>
<path d="M97.3673 48.1093C95.4457 43.4605 95.3422 35.3897 98.2764 31.1104C101.211 26.8311 106.709 24.0595 111.757 22.9805C112.588 22.7251 113.476 22.7251 114.307 22.9805C114.712 23.1327 115.044 23.4316 115.239 23.8177C115.433 24.2038 115.475 24.649 115.357 25.0647C116.338 24.3913 117.424 23.8867 118.572 23.5717C119.148 23.4088 119.757 23.391 120.342 23.52C120.928 23.6489 121.472 23.9206 121.927 24.3108C122.146 24.5115 122.323 24.7543 122.447 25.0247C122.57 25.2951 122.638 25.5876 122.646 25.8847C122.655 26.1819 122.603 26.4777 122.495 26.7546C122.386 27.0314 122.224 27.2837 122.016 27.4963C122.727 27.2325 123.5 27.1838 124.239 27.3564C124.978 27.5289 125.649 27.9151 126.17 28.4666C126.691 29.0182 127.038 29.7109 127.168 30.4583C127.298 31.2057 127.205 31.9748 126.901 32.6698C126.21 34.0932 125.251 35.3704 124.078 36.4318C123.021 37.4074 122.843 38.4125 123.021 39.839" fill="#263238"/>
<path d="M98.571 39.5877L97.2407 68.0276C97.1855 69.1739 97.3641 70.3194 97.7656 71.3945C98.167 72.4696 98.783 73.4518 99.5759 74.2814C100.369 75.111 101.322 75.7706 102.378 76.2202C103.434 76.6698 104.57 76.8999 105.718 76.8966C107.89 76.8856 109.975 76.0402 111.542 74.5354C113.109 73.0305 114.038 70.9812 114.136 68.811C114.232 66.6677 114.321 64.8791 114.343 64.6648C114.343 64.6648 121.616 64.3248 122.473 57.1853C122.887 53.7337 123.168 46.5572 123.338 40.0607C123.428 36.6959 122.247 33.4206 120.031 30.8869C117.815 28.3532 114.726 26.7468 111.379 26.3877L110.692 26.3137C103.227 25.9442 98.7336 32.0934 98.571 39.5877Z" fill="#FFBE9D"/>
<path d="M114.388 64.5612C111.081 64.2691 107.937 62.9979 105.356 60.9101C105.356 60.9101 106.783 65.3816 113.981 65.5072L114.388 64.5612Z" fill="#EB996E"/>
<path d="M120.788 44.6207C120.762 44.8882 120.632 45.1346 120.426 45.3073C120.22 45.48 119.955 45.5652 119.687 45.5446C119.556 45.5409 119.428 45.5109 119.309 45.4565C119.19 45.402 119.083 45.3242 118.995 45.2277C118.906 45.1312 118.838 45.0179 118.795 44.8946C118.751 44.7712 118.733 44.6404 118.741 44.5099C118.767 44.2438 118.896 43.9985 119.1 43.826C119.305 43.6535 119.568 43.5674 119.835 43.586C119.965 43.5908 120.094 43.6214 120.213 43.6761C120.332 43.7307 120.438 43.8084 120.527 43.9046C120.616 44.0008 120.684 44.1137 120.729 44.2366C120.774 44.3595 120.794 44.4901 120.788 44.6207Z" fill="#263238"/>
<path d="M121.446 43.4013C121.306 43.5196 120.596 42.8692 119.495 42.7509C118.394 42.6327 117.536 43.0983 117.433 42.9505C117.329 42.8026 117.529 42.6548 117.913 42.4405C118.424 42.1638 119.007 42.0503 119.584 42.1153C120.156 42.1755 120.694 42.4162 121.121 42.8027C121.431 43.0687 121.527 43.3496 121.446 43.4013Z" fill="#263238"/>
<path d="M109.946 43.8077C109.92 44.0738 109.791 44.3191 109.587 44.4916C109.382 44.6641 109.119 44.7502 108.852 44.7316C108.722 44.7268 108.593 44.6962 108.474 44.6415C108.355 44.5869 108.249 44.5092 108.16 44.413C108.071 44.3168 108.003 44.2039 107.958 44.081C107.913 43.9581 107.893 43.8275 107.899 43.6969C107.923 43.4301 108.052 43.1836 108.256 43.0107C108.461 42.8379 108.726 42.7525 108.993 42.773C109.124 42.7757 109.254 42.805 109.373 42.859C109.493 42.913 109.601 42.9907 109.69 43.0873C109.779 43.1839 109.847 43.2976 109.891 43.4214C109.936 43.5451 109.954 43.6766 109.946 43.8077Z" fill="#263238"/>
<path d="M110.626 42.4405C110.486 42.5587 109.776 41.9083 108.675 41.7901C107.574 41.6718 106.709 42.1374 106.605 41.9896C106.502 41.8418 106.709 41.7014 107.086 41.4797C107.599 41.2037 108.184 41.0903 108.764 41.1545C109.335 41.2181 109.872 41.4584 110.301 41.8418C110.604 42.1374 110.693 42.3887 110.626 42.4405Z" fill="#263238"/>
<path d="M113.738 51.0212C114.335 50.8974 114.947 50.8526 115.556 50.8882C115.837 50.8882 116.11 50.8882 116.177 50.6812C116.234 50.3948 116.201 50.0976 116.081 49.8313L115.482 47.614C114.654 44.4507 114.092 41.8566 114.218 41.827C114.344 41.7974 115.12 44.3325 115.948 47.5032C116.14 48.2422 116.332 49.0257 116.509 49.7204C116.64 50.081 116.64 50.4758 116.509 50.8364C116.46 50.9319 116.388 51.0144 116.301 51.0773C116.214 51.1402 116.113 51.1818 116.007 51.1986C115.847 51.2201 115.686 51.2201 115.526 51.1986C114.925 51.2177 114.324 51.1581 113.738 51.0212Z" fill="#263238"/>
<path d="M110.441 51.435C110.619 51.435 110.493 52.6324 111.424 53.5932C112.355 54.554 113.641 54.554 113.641 54.724C113.641 54.894 113.338 54.9235 112.799 54.8792C112.098 54.8153 111.443 54.5034 110.951 53.9997C110.48 53.5206 110.214 52.8759 110.212 52.2037C110.175 51.7011 110.338 51.4203 110.441 51.435Z" fill="#263238"/>
<path d="M111.372 38.1686C111.232 38.4568 110.153 38.1686 108.845 38.2129C107.537 38.2573 106.458 38.4642 106.317 38.2129C106.258 38.0725 106.465 37.8138 106.916 37.5699C107.514 37.2676 108.175 37.113 108.845 37.1191C109.513 37.1126 110.173 37.2619 110.774 37.5551C111.225 37.7695 111.439 38.0281 111.372 38.1686Z" fill="#263238"/>
<path d="M121.387 40.1788C121.165 40.408 120.441 40.068 119.532 39.9571C118.623 39.8463 117.832 39.9571 117.684 39.6615C117.618 39.5285 117.765 39.2919 118.128 39.0924C118.607 38.8656 119.142 38.784 119.668 38.8575C120.193 38.931 120.685 39.1566 121.084 39.5063C121.409 39.7945 121.483 40.068 121.387 40.1788Z" fill="#263238"/>
<path d="M98.6162 44.9459C98.4979 44.8794 93.8639 42.9651 93.4869 47.8653C93.11 52.7654 98.121 52.1372 98.1358 51.9967C98.1505 51.8563 98.6162 44.9459 98.6162 44.9459Z" fill="#FFBE9D"/>
<path d="M96.7531 50.0234C96.7531 50.0234 96.6644 50.0751 96.5092 50.1342C96.3047 50.2135 96.078 50.2135 95.8736 50.1342C95.5717 49.909 95.3353 49.6076 95.1885 49.2608C95.0417 48.914 94.9899 48.5343 95.0384 48.1609C95.0591 47.7397 95.1727 47.3283 95.371 46.9562C95.4288 46.8076 95.5214 46.675 95.641 46.5696C95.7606 46.4641 95.9037 46.3889 96.0583 46.3501C96.1588 46.3313 96.2627 46.3484 96.3518 46.3984C96.441 46.4483 96.5098 46.5281 96.5461 46.6236C96.6053 46.764 96.5461 46.8601 96.5905 46.8675C96.6348 46.8749 96.7013 46.7936 96.6792 46.594C96.6589 46.4702 96.5993 46.3561 96.5092 46.2688C96.3813 46.1556 96.2141 46.0972 96.0436 46.1062C95.8395 46.1311 95.6453 46.208 95.4796 46.3297C95.3139 46.4514 95.1823 46.6137 95.0975 46.801C94.8543 47.209 94.7171 47.6714 94.6984 48.1461C94.6386 48.581 94.7092 49.0238 94.9013 49.4186C95.0934 49.8133 95.3983 50.1421 95.7775 50.3633C95.9071 50.4123 96.046 50.4318 96.1841 50.4203C96.3222 50.4088 96.456 50.3666 96.5757 50.2968C96.7309 50.1416 96.7679 50.0308 96.7531 50.0234Z" fill="#EB996E"/>
<path d="M127.196 31.0437C127.284 37.4442 119.251 39.4988 116.109 35.6851C114.631 33.9187 113.412 31.7532 111.305 30.8515C110.585 30.5715 109.815 30.4383 109.042 30.4599C108.269 30.4815 107.508 30.6573 106.804 30.9772H106.76C104.661 31.8715 103.286 34.1183 102.799 36.3503C102.126 39.4619 102.414 42.263 101.38 45.0937C101.273 45.518 101.029 45.895 100.685 46.1653C100.064 46.5423 99.2066 46.1062 98.7854 45.5223C98.1393 44.531 97.7976 43.3723 97.8024 42.1891C97.5745 39.5144 97.881 36.8211 98.7041 34.2661C99.5392 31.7042 101.107 29.4432 103.212 27.7622C105.927 25.7587 109.313 24.8869 112.658 25.3306C115.992 25.7963 119.094 27.2985 121.527 29.6247C122.703 30.6482 123.604 31.9488 124.151 33.4088" fill="#263238"/>
<path d="M122.267 27.1487C122.497 27.1181 122.73 27.146 122.947 27.23C123.548 27.4314 124.081 27.7976 124.484 28.2869C125.107 28.9984 125.472 29.8995 125.519 30.8442C125.527 32.0095 125.103 33.1366 124.329 34.0074C123.585 34.878 122.612 35.5231 121.52 35.8699C120.642 36.1513 119.723 36.2837 118.8 36.2616C118.185 36.2505 117.572 36.1862 116.967 36.0695C116.74 36.0477 116.52 35.9824 116.317 35.8773C116.317 35.8108 117.271 36.0251 118.793 35.9956C119.683 35.9784 120.565 35.8264 121.409 35.5447C122.429 35.1956 123.337 34.5807 124.04 33.7635C124.754 32.963 125.153 31.9311 125.164 30.8589C125.141 29.9837 124.832 29.14 124.284 28.4569C123.919 27.9892 123.437 27.6249 122.888 27.4C122.511 27.2079 122.267 27.1857 122.267 27.1487Z" fill="#455A64"/>
<path d="M119.163 24.6508C119.163 24.6508 119.347 24.6064 119.628 24.769C119.816 24.8925 119.974 25.0559 120.092 25.2475C120.209 25.4391 120.283 25.6543 120.308 25.8777C120.356 26.535 120.173 27.1885 119.791 27.7254C119.387 28.3853 118.889 28.9828 118.313 29.4992C117.262 30.4465 115.992 31.117 114.617 31.4504C114.061 31.6233 113.474 31.6787 112.895 31.613C112.895 31.539 113.546 31.5095 114.543 31.1917C115.838 30.7961 117.031 30.1226 118.039 29.2183C118.593 28.7254 119.082 28.1642 119.495 27.548C119.851 27.0779 120.043 26.5042 120.042 25.9146C120.03 25.7199 119.979 25.5294 119.893 25.3544C119.807 25.1793 119.686 25.0231 119.539 24.8947C119.31 24.7173 119.155 24.6804 119.163 24.6508Z" fill="#455A64"/>
<path d="M98.3796 94.4867L100.678 77.68L67.6486 84.3317L37.5901 73.8885L29.4675 82.2401L61.455 98.7143C64.308 100.077 67.5227 100.489 70.6271 99.8894L98.3796 94.4867Z" fill="#FFBE9D"/>
<path d="M37.5901 73.8884C37.5901 73.8884 26.0973 68.3896 25.3582 68.1974C24.7891 68.0496 16.1123 67.5914 12.1582 67.3844C11.8483 67.3818 11.5486 67.4952 11.318 67.7022C11.0874 67.9093 10.9426 68.1952 10.9121 68.5036C10.8815 68.812 10.9674 69.1207 11.1528 69.369C11.3383 69.6173 11.6099 69.7873 11.9143 69.8456H12.0621C14.2794 70.0303 19.1278 71.139 19.1278 71.139L16.9105 76.3125C16.803 76.5689 16.7847 76.8539 16.8584 77.1219C16.9321 77.3899 17.0936 77.6254 17.317 77.7907L24.0057 82.7352C24.8815 83.1334 25.8467 83.2939 26.8043 83.2004C27.7618 83.107 28.6778 82.763 29.4601 82.203L32.4165 82.8091L37.5901 73.8884Z" fill="#FFBE9D"/>
<path d="M16.8883 76.6379C17.0952 77.6061 19.4012 79.5942 21.1528 79.5942C21.5391 79.6006 21.9146 79.4667 22.2097 79.2173C22.3498 79.0862 22.4477 78.9164 22.4911 78.7296C22.5346 78.5427 22.5215 78.3472 22.4536 78.1678C22.3302 77.947 22.1553 77.7593 21.9436 77.6209L18.0561 74.5684" fill="#FFBE9D"/>
<path d="M18.0552 74.5684C18.6345 74.8782 19.1816 75.2446 19.6886 75.6623L21.3959 76.9409C21.7211 77.1922 22.0463 77.4065 22.401 77.7317C22.503 77.8264 22.585 77.9407 22.6421 78.0676C22.6993 78.1945 22.7304 78.3316 22.7336 78.4708C22.7344 78.7395 22.6431 79.0003 22.475 79.2099C22.3051 79.4012 22.0933 79.5508 21.8561 79.647C21.619 79.7431 21.3628 79.7832 21.1076 79.7642C20.6658 79.7417 20.232 79.6364 19.829 79.4538C19.1598 79.1655 18.543 78.7684 18.0035 78.2786C17.6355 77.9539 17.319 77.5751 17.0649 77.1552C16.8949 76.8448 16.8875 76.6379 16.9097 76.6379C16.9318 76.6379 16.991 76.8079 17.1905 77.0739C17.4793 77.4451 17.8119 77.7801 18.1809 78.0717C18.7197 78.5093 19.3198 78.8654 19.9621 79.1286C20.3304 79.283 20.7233 79.3706 21.1224 79.3873C21.3173 79.402 21.5129 79.3725 21.6947 79.3008C21.8765 79.2291 22.0396 79.1172 22.1719 78.9734C22.2904 78.8385 22.3558 78.6651 22.3558 78.4856C22.3558 78.3061 22.2904 78.1327 22.1719 77.9978C21.8911 77.7317 21.5141 77.473 21.2185 77.2587L19.5334 75.8766C18.9952 75.4949 18.4996 75.0563 18.0552 74.5684Z" fill="#EB996E"/>
<path d="M26.1861 79.6238C26.1861 79.6238 25.9274 79.4907 25.6909 79.1212C25.382 78.6307 25.2086 78.0671 25.1883 77.4878C25.1585 76.9128 25.2782 76.3399 25.5357 75.8249C25.7426 75.4332 25.9496 75.2484 25.9865 75.2779C25.7369 75.9918 25.5974 76.7394 25.5726 77.4952C25.6664 78.232 25.8733 78.95 26.1861 79.6238Z" fill="#EB996E"/>
<path d="M21.5739 76.9704C21.7334 77.2709 21.9916 77.5072 22.3051 77.6394C22.6186 77.7716 22.9681 77.7917 23.2946 77.6961C23.6211 77.6006 23.9047 77.3954 24.0975 77.1151C24.2903 76.8347 24.3804 76.4965 24.3528 76.1574C24.287 75.7455 24.1376 75.3514 23.914 74.9994C23.6903 74.6473 23.3969 74.3447 23.052 74.1102L20.177 71.5086" fill="#FFBE9D"/>
<path d="M20.177 71.4791C20.6129 71.7336 21.0173 72.0388 21.3817 72.3881L22.616 73.445C23.1542 73.871 23.6493 74.3487 24.0941 74.8715C24.323 75.1702 24.4752 75.5203 24.5376 75.8914C24.5959 76.2505 24.528 76.6188 24.3454 76.9335C24.2035 77.2001 23.9899 77.4216 23.7287 77.5731C23.4675 77.7246 23.1691 77.8001 22.8673 77.7908C22.4716 77.7719 22.0973 77.6058 21.8178 77.3252C21.6256 77.1257 21.5813 76.9779 21.596 76.9705C21.6108 76.9631 21.7143 77.0665 21.9138 77.2144C22.1933 77.4159 22.5302 77.5222 22.8747 77.5174C23.1165 77.5093 23.3517 77.4364 23.5558 77.3064C23.7599 77.1764 23.9254 76.994 24.035 76.7783C24.1598 76.5056 24.2025 76.2024 24.1579 75.9058C24.1133 75.6091 23.9833 75.3319 23.7837 75.108C23.3588 74.6128 22.8968 74.1508 22.4016 73.7259L21.2191 72.6025C20.8223 72.2771 20.4717 71.8992 20.177 71.4791Z" fill="#EB996E"/>
<path d="M26.5037 71.0429C24.1848 71.5969 21.9709 72.5229 19.9481 73.7849C19.8187 73.848 19.7163 73.9556 19.6598 74.088C19.6007 74.2801 19.7485 74.4649 19.9037 74.5905C20.5406 75.0215 21.3159 75.1982 22.0766 75.0857C22.8257 74.9664 23.5806 74.8874 24.3382 74.8492C25.6538 74.8492 26.8659 75.507 28.1371 75.8618C29.4083 76.2165 30.9456 76.2017 31.8325 75.2114" fill="#FFBE9D"/>
<path d="M31.8178 75.2114C31.8178 75.2114 31.8178 75.2853 31.6995 75.3887C31.5594 75.5401 31.3975 75.6696 31.2191 75.7731C30.5423 76.1414 29.7639 76.279 29.0018 76.1648C27.9167 75.9777 26.8524 75.6856 25.8238 75.2927C25.2286 75.1071 24.6066 75.0221 23.9835 75.0414C23.3331 75.0783 22.6605 75.2409 21.9214 75.2853C21.1843 75.3716 20.4405 75.1935 19.8224 74.7827C19.6429 74.6683 19.5115 74.4921 19.4529 74.2875C19.4239 74.1589 19.445 74.0241 19.512 73.9106C19.5704 73.8226 19.6458 73.7472 19.7337 73.6888C20.022 73.5041 20.2881 73.3563 20.5615 73.2011C21.5074 72.6601 22.4962 72.1979 23.5178 71.819C24.2108 71.5605 24.9192 71.3458 25.639 71.176C25.9004 71.0957 26.1713 71.0509 26.4446 71.0429C26.4446 71.1095 25.3286 71.3681 23.6139 72.0703C22.6124 72.4828 21.6396 72.9618 20.7019 73.5041C20.4433 73.6593 20.1624 73.8293 19.9111 73.9919C19.7929 74.0806 19.7559 74.1323 19.7781 74.2062C19.8212 74.3207 19.902 74.4171 20.0072 74.4797C20.5582 74.8305 21.2138 74.9794 21.8623 74.901C22.5496 74.8566 23.237 74.7014 23.9243 74.6718C24.5909 74.6523 25.2559 74.7473 25.8903 74.9527C26.8968 75.354 27.9352 75.6704 28.9945 75.8987C29.7013 76.0197 30.428 75.9323 31.0861 75.6474C31.338 75.516 31.5823 75.3704 31.8178 75.2114Z" fill="#EB996E"/>
<path d="M68.1584 90.1262C67.5145 88.2161 67.4553 86.1574 67.9884 84.2135C68.0992 84.2135 67.9884 85.5586 67.9884 87.1698C67.9884 88.781 68.2692 90.104 68.1584 90.1262Z" fill="#EB996E"/>
<path d="M97.0642 69.8826L87.6926 80.4441C87.6926 80.4441 82.6817 116.918 82.3269 119.785C81.9721 122.653 81.0187 131.803 81.0187 134.308C81.0187 136.814 78.9419 154.722 78.9419 154.722C78.9419 154.722 118.712 162.985 125.371 154.722L123.294 139.386L125.098 101.345C125.098 101.345 128.054 74.9379 114.159 68.8257C114.137 68.8109 105.357 74.1101 97.0642 69.8826Z" fill="#1CA0E3"/>
<path d="M120.544 72.5507C120.544 72.5507 117.802 69.8456 109.037 72.1146C99.8054 74.5018 94.9349 83.1417 97.2112 107.591C99.1033 127.768 107.078 130.665 107.078 130.665C107.078 130.665 102.71 100.237 103.464 87.5097C104.41 71.4347 120.529 75.4331 120.529 75.4331C122.835 74.7088 120.544 72.5507 120.544 72.5507Z" fill="#263238"/>
<path d="M97.0643 69.8826L88.964 72.1146L70.7382 83.2748L75.9265 99.7563L86.6284 98.5812L97.0643 69.8826Z" fill="#1CA0E3"/>
<path d="M86.5176 81.3236C86.6285 81.3236 86.1629 87.2363 85.4903 94.4793C84.8178 101.722 84.1821 107.62 84.0787 107.605C83.9752 107.591 84.4334 101.693 85.106 94.4497C85.7786 87.2067 86.4142 81.3162 86.5176 81.3236Z" fill="#263238"/>
<path d="M123.619 132.549C123.619 132.549 121.032 140.864 111.89 127.132C102.747 113.4 104.026 119.542 104.026 119.542L102.156 121.759C102.156 121.759 112.215 144.412 123.501 140.864L123.619 132.549Z" fill="#263238"/>
<path opacity="0.3" d="M86.148 85.2851L78.9419 99.4238L84.8989 98.7734L86.148 85.2851Z" fill="black"/>
<g opacity="0.3">
<path d="M82.8438 122.823C88.1473 128.595 94.4114 133.404 101.358 137.036C104.262 138.558 107.477 139.896 110.729 139.475C114.307 139.016 117.381 136.43 119.059 133.244C120.737 130.059 120.537 128.521 120.914 124.944C121.357 120.998 121.357 115.728 121.564 112.129C121.564 111.493 121.609 110.754 121.609 110.052C121.609 109.291 121.854 108.551 122.308 107.942C122.762 107.332 123.401 106.885 124.129 106.667C124.129 106.667 121.912 105.639 120.485 105.846C119.059 106.053 117.921 107.273 117.159 108.529C113.102 115.218 114.868 125.026 107.13 129.224C104.572 130.531 101.656 130.959 98.8301 130.443C92.4962 129.408 87.6478 125.269 82.9768 121.19" fill="black"/>
</g>
<path d="M91.5945 108.98C93.5334 108.98 95.1052 104.255 95.1052 98.426C95.1052 92.5971 93.5334 87.8719 91.5945 87.8719C89.6556 87.8719 88.0839 92.5971 88.0839 98.426C88.0839 104.255 89.6556 108.98 91.5945 108.98Z" fill="#FAFAFA"/>
<path d="M93.4418 281.985L94.2474 299.36C94.2474 299.36 76.8568 306.012 76.6868 309.242L110.433 308.895L110.293 281.77L93.4418 281.985Z" fill="#1CA0E3"/>
<g opacity="0.6">
<path d="M104.698 297.794C105.023 297.89 105.3 298.102 105.479 298.39C105.657 298.677 105.724 299.02 105.666 299.353C105.582 299.682 105.375 299.967 105.088 300.148C104.801 300.33 104.455 300.394 104.122 300.329C103.779 300.223 103.486 299.996 103.299 299.69C103.111 299.384 103.041 299.02 103.102 298.666C103.227 298.333 103.476 298.06 103.796 297.905C104.117 297.749 104.485 297.723 104.824 297.831" fill="white"/>
</g>
<path opacity="0.6" d="M110.441 308.895V306.19L78.0248 307.52C78.0248 307.52 76.5467 308.185 76.7093 309.242L110.441 308.895Z" fill="white"/>
<path d="M93.7227 299.198C93.7227 299.361 94.5579 299.427 95.3708 299.937C96.1838 300.447 96.6273 301.142 96.7825 301.075C96.9377 301.009 96.679 300.063 95.6739 299.449C94.6687 298.836 93.6857 299.043 93.7227 299.198Z" fill="#263238"/>
<path d="M90.2054 300.698C90.1684 300.861 90.8853 301.134 91.447 301.822C92.0087 302.509 92.1861 303.248 92.3487 303.241C92.5113 303.233 92.6074 302.295 91.8905 301.452C91.1736 300.61 90.2054 300.543 90.2054 300.698Z" fill="#263238"/>
<path d="M88.2684 304.955C88.4162 304.955 88.638 304.165 88.2019 303.263C87.7658 302.361 86.9972 302.014 86.9307 302.154C86.8642 302.295 87.3446 302.768 87.6698 303.514C87.995 304.261 88.0689 304.941 88.2684 304.955Z" fill="#263238"/>
<path d="M93.9814 295.214C94.0553 295.37 94.8092 295.133 95.7404 295.214C96.6717 295.296 97.396 295.554 97.4847 295.414C97.5734 295.273 96.8638 294.675 95.7626 294.638C94.6614 294.601 93.9001 295.096 93.9814 295.214Z" fill="#263238"/>
<path opacity="0.3" d="M93.6348 285.429L93.7752 288.526L110.36 288.201L110.353 285.407L93.6348 285.429Z" fill="black"/>
<path d="M93.8853 291.711C94.4391 291.864 95.0239 291.864 95.5778 291.711C96.1842 291.594 96.7746 291.405 97.3368 291.15C97.6707 290.996 97.9941 290.821 98.305 290.625C98.4892 290.514 98.6582 290.38 98.8075 290.226C98.9117 290.106 98.9744 289.955 98.9864 289.797C98.9984 289.638 98.959 289.48 98.8741 289.346C98.7897 289.23 98.6784 289.135 98.5498 289.071C98.4211 289.007 98.2788 288.974 98.135 288.977C97.9193 288.974 97.7047 289.007 97.4994 289.073C97.1403 289.16 96.7911 289.284 96.4573 289.442C95.8878 289.702 95.3637 290.051 94.9052 290.477C94.1291 291.216 93.8705 291.829 93.9296 291.866C93.9887 291.903 94.3804 291.393 95.1713 290.787C95.6266 290.44 96.1231 290.149 96.6494 289.923C96.9646 289.797 97.2881 289.693 97.6176 289.612C97.9724 289.516 98.2828 289.516 98.3567 289.671C98.4306 289.827 98.3567 289.753 98.3198 289.864C98.2127 289.979 98.0879 290.076 97.9502 290.152C97.6645 290.343 97.3684 290.518 97.0633 290.676C96.5421 290.94 95.9978 291.155 95.4373 291.319C94.9115 291.414 94.3929 291.545 93.8853 291.711Z" fill="#263238"/>
<path d="M94.0999 291.94C94.4189 291.458 94.5696 290.883 94.5286 290.307C94.5527 289.681 94.4676 289.056 94.2773 288.459C94.1681 288.105 94.0219 287.763 93.8412 287.439C93.7481 287.217 93.5992 287.022 93.4088 286.875C93.2185 286.727 92.9931 286.631 92.7548 286.596C92.6034 286.594 92.4548 286.638 92.3293 286.722C92.2037 286.807 92.1071 286.928 92.0526 287.07C91.9661 287.267 91.9088 287.476 91.8826 287.69C91.8231 288.067 91.8231 288.451 91.8826 288.829C91.982 289.462 92.2358 290.061 92.6217 290.573C93.2869 291.437 93.9816 291.63 93.989 291.571C93.9964 291.511 93.4717 291.179 92.9543 290.344C92.6593 289.862 92.4727 289.323 92.4074 288.762C92.3636 288.436 92.3636 288.105 92.4074 287.779C92.4591 287.424 92.5922 287.129 92.7252 287.166C92.8582 287.203 93.1834 287.432 93.3238 287.713C93.4938 288.005 93.6372 288.311 93.7525 288.629C93.9429 289.17 94.0573 289.734 94.0925 290.307C94.1812 291.297 94.0112 291.918 94.0999 291.94Z" fill="#263238"/>
<path d="M126.169 271.445L139.812 282.229C139.812 282.229 133.434 299.723 135.762 301.962L157.624 276.257L137.048 258.571L126.169 271.445Z" fill="#1CA0E3"/>
<g opacity="0.6">
<path d="M145.459 273.33C145.745 273.146 146.088 273.074 146.423 273.127C146.758 273.181 147.062 273.355 147.277 273.618C147.47 273.897 147.549 274.239 147.498 274.574C147.447 274.909 147.271 275.213 147.004 275.422C146.699 275.611 146.337 275.683 145.983 275.624C145.63 275.566 145.31 275.381 145.082 275.104C144.909 274.792 144.863 274.425 144.956 274.08C145.048 273.735 145.271 273.44 145.577 273.256" fill="white"/>
</g>
<path opacity="0.6" d="M157.624 276.25L155.577 274.483L135.319 299.834C135.319 299.834 134.846 301.401 135.762 301.955L157.624 276.25Z" fill="white"/>
<path d="M139.325 282.532C139.458 282.635 140.064 282.051 140.98 281.792C141.897 281.534 142.717 281.637 142.762 281.482C142.806 281.327 141.926 280.891 140.81 281.246C139.694 281.6 139.192 282.458 139.325 282.532Z" fill="#263238"/>
<path d="M138.149 286.175C138.245 286.308 138.888 285.946 139.82 285.968C140.751 285.99 141.379 286.353 141.475 286.22C141.571 286.086 140.936 285.407 139.827 285.399C138.718 285.392 138.031 286.072 138.149 286.175Z" fill="#263238"/>
<path d="M140.071 290.447C140.197 290.359 139.716 289.649 138.755 289.39C137.795 289.132 137.026 289.479 137.085 289.62C137.144 289.76 137.824 289.716 138.607 289.945C139.391 290.174 139.953 290.566 140.071 290.447Z" fill="#263238"/>
<path d="M136.494 279.723C136.649 279.767 136.967 279.051 137.617 278.378C138.268 277.705 138.962 277.351 138.911 277.188C138.859 277.025 137.957 277.188 137.203 277.986C136.449 278.784 136.309 279.701 136.494 279.723Z" fill="#263238"/>
<path opacity="0.3" d="M128.874 273.567L131.305 275.496L141.933 262.761L139.82 260.936L128.874 273.567Z" fill="black"/>
<path d="M133.781 277.499C133.826 277.543 134.328 277.114 134.868 276.205C135.182 275.671 135.43 275.1 135.607 274.505C135.708 274.153 135.787 273.795 135.843 273.434C135.875 273.22 135.875 273.004 135.843 272.791C135.821 272.633 135.749 272.487 135.637 272.374C135.525 272.26 135.38 272.186 135.223 272.162C135.084 272.153 134.946 272.176 134.818 272.228C134.69 272.281 134.575 272.362 134.483 272.465C134.343 272.628 134.226 272.81 134.136 273.005C133.973 273.338 133.837 273.684 133.73 274.04C133.557 274.642 133.479 275.268 133.501 275.895C133.463 276.47 133.602 277.042 133.9 277.535C133.996 277.535 133.848 276.892 133.9 275.895C133.957 274.975 134.209 274.078 134.639 273.264C134.801 272.931 134.993 272.702 135.171 272.731C135.348 272.761 135.26 272.731 135.296 272.879C135.317 273.039 135.317 273.2 135.296 273.36C135.249 273.698 135.185 274.033 135.104 274.365C134.962 274.934 134.767 275.488 134.52 276.02C134.235 276.492 133.988 276.987 133.781 277.499Z" fill="#263238"/>
<path d="M134.092 277.491C134.143 277.491 133.907 276.826 133.138 276.094C132.68 275.666 132.153 275.319 131.579 275.067C131.236 274.918 130.88 274.805 130.514 274.727C130.286 274.653 130.042 274.639 129.806 274.687C129.57 274.735 129.351 274.843 129.169 275C129.075 275.117 129.015 275.258 128.996 275.407C128.978 275.556 129.002 275.707 129.066 275.843C129.161 276.036 129.283 276.216 129.428 276.375C129.678 276.663 129.969 276.912 130.293 277.114C130.836 277.451 131.452 277.651 132.089 277.698C133.183 277.757 133.781 277.365 133.744 277.314C133.21 277.352 132.674 277.352 132.14 277.314C131.582 277.22 131.051 277.008 130.581 276.693C130.305 276.509 130.056 276.288 129.842 276.035C129.605 275.762 129.472 275.473 129.583 275.392C129.704 275.321 129.838 275.277 129.977 275.262C130.115 275.246 130.256 275.261 130.389 275.303C130.719 275.367 131.043 275.459 131.357 275.577C131.886 275.79 132.383 276.073 132.835 276.419C133.663 277.003 134.018 277.543 134.092 277.491Z" fill="#263238"/>
<path d="M88.3349 208.476C88.3349 208.476 89.2365 166.969 88.3349 166.969C87.4332 166.969 81.0327 163.318 81.0327 163.318L73.0358 224.994C73.0358 224.994 72.2967 231.919 80.8849 236.819C89.473 241.72 127.765 275.762 127.765 275.762L140.743 259.953C140.743 259.953 115.533 233.678 105.267 224.994C97.1373 218.231 88.3349 208.476 88.3349 208.476Z" fill="#263238"/>
<path d="M111.816 198.801L112.696 192.23C112.696 192.23 119.008 178.927 119.909 173.266C120.811 167.604 120.22 155.335 120.22 155.335H80.3461C80.3461 155.335 80.5161 200.353 85.3275 212.984C85.3275 212.984 87.7665 237.152 88.1286 239.177C88.8677 243.478 91.5506 287.483 91.5506 287.483L111.654 286.744C111.654 286.744 113.398 246.287 112.001 234.802C111.314 229.111 110.988 223.05 110.833 218.039C110.644 211.61 110.972 205.177 111.816 198.801Z" fill="#263238"/>
<path d="M81.4321 168.469C81.4396 168.533 81.4396 168.597 81.4321 168.661C81.4321 168.816 81.4321 169.008 81.469 169.245C81.469 169.784 81.5281 170.538 81.5725 171.462C81.6464 173.406 81.7942 176.222 81.9938 179.696C82.3929 186.643 83.1393 196.229 84.211 206.79C85.2827 217.352 86.4874 226.893 87.3373 233.804C87.7586 237.233 88.0764 240.02 88.3351 241.986C88.446 242.932 88.5347 243.671 88.5938 244.203C88.5938 244.439 88.6381 244.631 88.6529 244.787C88.6677 244.942 88.6529 244.986 88.6529 244.986C88.6287 244.924 88.6113 244.86 88.6012 244.794L88.5125 244.218L88.1799 242C87.9138 240.042 87.5295 237.255 87.0565 233.833C86.14 226.93 84.9205 217.389 83.8193 206.82C82.7181 196.251 82.0233 186.658 81.6908 179.703C81.5208 176.222 81.4247 173.406 81.3951 171.462C81.3951 170.509 81.3951 169.762 81.3582 169.245V168.668C81.3758 168.6 81.4006 168.533 81.4321 168.469Z" fill="#455A64"/>
<path d="M110.796 221.749C110.853 221.963 110.893 222.18 110.914 222.4C110.973 222.858 111.062 223.486 111.173 224.277C111.373 225.918 111.624 228.29 111.853 231.224C112.326 237.1 112.681 245.267 112.814 254.225C112.947 263.182 112.814 271.364 112.459 277.247C112.311 280.204 112.119 282.569 111.964 284.209C111.875 285 111.801 285.628 111.749 286.094C111.734 286.315 111.702 286.535 111.653 286.752C111.634 286.53 111.634 286.308 111.653 286.087C111.69 285.621 111.735 284.993 111.794 284.195C111.905 282.554 112.053 280.174 112.171 277.232C112.415 271.357 112.518 263.19 112.407 254.232C112.296 245.274 111.964 237.115 111.557 231.247C111.365 228.29 111.158 225.933 111.003 224.292C110.922 223.501 110.855 222.873 110.811 222.407C110.788 222.189 110.783 221.969 110.796 221.749Z" fill="#455A64"/>
<path d="M118.638 71.6268C118.638 71.6268 125.164 73.3637 126.553 83.09C127.943 92.8163 125.371 95.5953 125.371 95.5953C125.371 95.5953 126.428 77.4878 118.32 75.0192L118.638 71.9816" fill="#263238"/>
<path d="M74.1747 103.393L40.4873 102.735L40.879 104.368L74.0121 104.856L74.1747 103.393Z" fill="#263238"/>
<path d="M115.023 74.6793C113.76 74.3709 112.43 74.4878 111.239 75.0119C108.512 76.1574 103.516 79.4464 103.161 88.7884L102.584 103.844L124.129 106.667C124.129 106.667 125.962 77.5913 115.023 74.6793Z" fill="#1CA0E3"/>
<path d="M75.3713 106.578L102.717 114.797L103.124 103.799L119.487 106.179L118.571 124.065C118.478 126.617 117.549 129.068 115.926 131.041C114.303 133.013 112.077 134.398 109.591 134.981C106.731 135.65 103.725 135.214 101.173 133.762L72.1489 117.258L75.3713 106.578Z" fill="#FFBE9D"/>
<path d="M124.129 106.667C124.129 106.667 124.129 106.571 124.129 106.408C124.129 106.246 124.129 105.979 124.092 105.669C124.092 105.011 124.041 104.087 123.996 102.905C123.922 100.503 123.811 97.0735 123.678 92.8386C123.612 90.7248 123.545 88.4041 123.479 85.9208C123.479 85.2999 123.442 84.6643 123.42 84.0213C123.42 83.7109 123.361 83.3931 123.324 83.0679C123.287 82.7427 123.213 82.4323 123.124 82.1145C122.579 80.0529 121.39 78.2194 119.729 76.8818C118.068 75.5441 116.023 74.7724 113.893 74.6793C112.363 74.6646 110.861 75.0933 109.569 75.9136C108.235 76.7637 107.096 77.8872 106.229 79.2099C104.989 81.1119 104.152 83.2473 103.767 85.4847C103.39 87.6291 103.165 89.7976 103.095 91.9739C102.977 96.2162 102.866 100.207 102.762 103.836L102.622 103.666L118.194 105.795L122.57 106.408L123.745 106.63L124.151 106.704L123.745 106.63L122.614 106.504L118.261 105.972L102.555 104.006H102.415V103.858C102.504 100.222 102.57 96.2384 102.711 91.9886C102.77 89.7928 102.989 87.6041 103.368 85.4404C103.76 83.1518 104.618 80.9681 105.889 79.0251C106.786 77.6565 107.966 76.4949 109.348 75.6179C110.7 74.7573 112.275 74.3103 113.878 74.3319C115.38 74.3959 116.849 74.7876 118.183 75.4796C119.518 76.1716 120.684 77.1471 121.602 78.3378C122.459 79.431 123.083 80.6888 123.434 82.0332C123.516 82.3584 123.567 82.691 123.634 83.0236C123.701 83.3561 123.701 83.6813 123.73 84.0139C123.73 84.6569 123.73 85.2999 123.774 85.9282C123.826 88.441 123.871 90.7839 123.915 92.9199C123.989 97.1622 124.048 100.599 124.092 103.001C124.092 104.161 124.092 105.078 124.129 105.721V106.46C124.136 106.529 124.136 106.598 124.129 106.667Z" fill="#263238"/>
<path d="M75.9257 106.903L69.3626 102.048C68.1653 101.161 66.3028 101.308 64.8172 101.212C61.8609 100.946 57.0347 102.691 56.8499 103.031L58.8307 104.612L46.0741 104.22C46.5118 105.089 47.1766 105.822 47.9977 106.342C48.8189 106.863 49.7658 107.151 50.7377 107.177C50.7377 107.177 51.1442 110.059 54.847 110.606C54.847 110.606 55.8078 112.942 57.8699 113.622C57.8699 113.622 58.2764 116.231 61.5653 116.09L72.7476 117.339L75.9257 106.903Z" fill="#FFBE9D"/>
<path d="M58.7048 107.628C57.359 107.745 56.0049 107.73 54.662 107.583C53.3134 107.574 51.969 107.43 50.6488 107.155C51.9925 107.046 53.3432 107.061 54.6842 107.199C56.0347 107.218 57.3806 107.362 58.7048 107.628Z" fill="#EB996E"/>
<path d="M61.9426 110.702C60.7752 110.892 59.5909 110.956 58.4098 110.894C57.2287 110.956 56.0444 110.892 54.877 110.702C56.0439 110.508 57.2287 110.444 58.4098 110.51C59.5909 110.444 60.7757 110.508 61.9426 110.702Z" fill="#EB996E"/>
<path d="M65.4091 113.599C64.2421 113.793 63.0573 113.858 61.8763 113.792C60.6976 113.858 59.5152 113.794 58.3508 113.599C59.5157 113.41 60.6976 113.345 61.8763 113.407C63.0573 113.345 64.2417 113.41 65.4091 113.599Z" fill="#EB996E"/>
<path d="M104.529 120.377C103.989 119.55 103.58 118.645 103.317 117.694C102.92 116.788 102.671 115.825 102.578 114.841C103.028 115.711 103.387 116.625 103.649 117.568C104.041 118.471 104.336 119.412 104.529 120.377Z" fill="#EB996E"/>
<path d="M106.472 119.313C105.713 118.609 105.022 117.834 104.41 116.999C103.699 116.251 103.062 115.434 102.511 114.56C103.359 115.181 104.107 115.929 104.728 116.778C105.43 117.533 106.018 118.387 106.472 119.313Z" fill="#EB996E"/>
</svg>
